<svg fill="red" version="1.1" id="waves" xmlns="http://www.w3.org/2000/svg" xmlns:xlink="http://www.w3.org/1999/xlink" x="0px" y="0px" xml:space="preserve" viewBox="0 0 571 368" preserveAspectRatio="none">
    <g>
      <path d="M47.4,131.7c27.7,0,41-21.4,51.7-38.6c9.7-15.6,16.2-25.2,27.5-25.2c11.3,0,17.8,9.6,27.5,25.2
		c10.7,17.2,24,38.6,51.7,38.6c27.7,0,41-21.4,51.6-38.6c9.7-15.6,16.2-25.2,27.6-25.2s17.9,9.6,27.6,25.2
		c10.7,17.2,24,38.6,51.6,38.6c27.7,0,41-21.4,51.7-38.6c9.7-15.6,16.2-25.2,27.6-25.2c11.3,0,17.8,9.6,27.5,25.2
		c10.7,17.2,24,38.6,51.7,38.6c7.8,0,14.2-6.4,14.2-14.2c0-7.8-6.4-14.2-14.2-14.2c-11.3,0-17.9-9.6-27.6-25.2
		c-10.7-17.2-24-38.6-51.7-38.6c-27.7,0-41,21.4-51.7,38.6c-9.7,15.6-16.2,25.2-27.6,25.2c-11.3,0-17.8-9.6-27.5-25.2
		c-10.7-17.2-24-38.6-51.7-38.6c-27.7,0-41,21.4-51.7,38.6c-9.7,15.6-16.2,25.2-27.5,25.2c-11.3,0-17.9-9.6-27.5-25.2
		c-10.7-17.2-24-38.6-51.6-38.6c-27.7,0-41,21.4-51.6,38.6c-9.7,15.6-16.2,25.2-27.6,25.2c-7.8,0-14.2,6.4-14.2,14.2
		C33.2,125.4,39.5,131.7,47.4,131.7L47.4,131.7z"></path>
      <path d="M522.6,202.7c-11.3,0-17.9-9.6-27.6-25.2c-10.7-17.2-24-38.6-51.7-38.6c-27.7,0-41,21.4-51.7,38.6
		c-9.7,15.6-16.2,25.2-27.6,25.2c-11.3,0-17.8-9.6-27.5-25.2c-10.7-17.2-24-38.6-51.7-38.6s-41,21.4-51.7,38.6
		c-9.7,15.6-16.2,25.2-27.5,25.2c-11.3,0-17.9-9.6-27.5-25.2c-10.7-17.2-24-38.6-51.6-38.6c-27.7,0-41,21.4-51.6,38.6
		c-9.7,15.6-16.2,25.2-27.6,25.2c-7.8,0-14.2,6.4-14.2,14.2c0,7.8,6.4,14.2,14.2,14.2c27.7,0,41-21.4,51.7-38.6
		c9.7-15.6,16.2-25.2,27.5-25.2c11.3,0,17.8,9.6,27.5,25.2c10.7,17.2,24,38.6,51.7,38.6c27.7,0,41-21.4,51.6-38.6
		c9.7-15.6,16.2-25.2,27.6-25.2s17.9,9.6,27.6,25.2c10.7,17.2,24,38.6,51.6,38.6c27.7,0,41-21.4,51.7-38.6
		c9.7-15.6,16.2-25.2,27.6-25.2c11.3,0,17.8,9.6,27.5,25.2c10.7,17.2,24,38.6,51.7,38.6c7.8,0,14.2-6.4,14.2-14.2
		C536.8,209.1,530.5,202.7,522.6,202.7L522.6,202.7z"></path>
      <path d="M522.6,302.1c-11.3,0-17.9-9.6-27.6-25.2c-10.7-17.2-24-38.6-51.7-38.6c-27.7,0-41,21.4-51.7,38.6
		c-9.7,15.6-16.2,25.2-27.6,25.2c-11.3,0-17.8-9.6-27.5-25.2c-10.7-17.2-24-38.6-51.7-38.6s-41,21.4-51.7,38.6
		c-9.7,15.6-16.2,25.2-27.5,25.2c-11.3,0-17.9-9.6-27.5-25.2c-10.7-17.2-24-38.6-51.6-38.6c-27.7,0-41,21.4-51.6,38.6
		c-9.7,15.6-16.2,25.2-27.6,25.2c-7.8,0-14.2,6.3-14.2,14.2c0,7.8,6.4,14.2,14.2,14.2c27.7,0,41-21.4,51.7-38.6
		c9.7-15.6,16.2-25.2,27.5-25.2c11.3,0,17.8,9.6,27.5,25.2c10.7,17.2,24,38.6,51.7,38.6c27.7,0,41-21.4,51.6-38.6
		c9.7-15.6,16.2-25.2,27.6-25.2s17.9,9.6,27.6,25.2c10.7,17.2,24,38.6,51.6,38.6c27.7,0,41-21.4,51.7-38.6
		c9.7-15.6,16.2-25.2,27.6-25.2c11.3,0,17.8,9.6,27.5,25.2c10.7,17.2,24,38.6,51.7,38.6c7.8,0,14.2-6.4,14.2-14.2
		C536.8,308.5,530.5,302.1,522.6,302.1L522.6,302.1z"></path>
    </g>
  </svg>