<svg version="1.1" xmlns="http://www.w3.org/2000/svg" xmlns:xlink="http://www.w3.org/1999/xlink">
  <svg version="1.1" id="burger" xmlns="http://www.w3.org/2000/svg" xmlns:xlink="http://www.w3.org/1999/xlink" x="0px" y="0px" xml:space="preserve" viewBox="0 0 700 564">
    <path d="M226.1,81.7h429c20.3,0,36.8-16.8,36.8-37.4c0-20.7-16.5-37.4-36.8-37.4H226c-20.3,0-36.8,16.8-36.8,37.4
	C189.3,65,205.7,81.7,226.1,81.7L226.1,81.7z M42.3,318.8H655c20.3,0,36.8-16.8,36.8-37.4c0-20.7-16.5-37.4-36.8-37.4H42.3
	c-20.3,0-36.8,16.8-36.8,37.4C5.5,302,22,318.8,42.3,318.8z M226.1,555.9h429c20.3,0,36.8-16.8,36.8-37.4S675.3,481,655,481H226
	c-20.3,0-36.8,16.8-36.8,37.4S205.7,555.9,226.1,555.9L226.1,555.9z"></path>
  </svg>

  <svg version="1.1" id="arrow" xmlns="http://www.w3.org/2000/svg" xmlns:xlink="http://www.w3.org/1999/xlink" x="0px" y="0px"
	 viewBox="0 0 624 627" xml:space="preserve">
    <g>
      <path d="M596,317L314.1,37v150.3h-85.9v259.4h85.9V597L596,317z"/>
      <path d="M121.9,187.3h63.5v259.4h-63.5V187.3z"/>
      <path d="M36,187.3h42.9v259.4H36V187.3z"/>
    </g>
  </svg>

  <svg version="1.1" id="feedback" xmlns="http://www.w3.org/2000/svg" xmlns:xlink="http://www.w3.org/1999/xlink" x="0px" y="0px" xml:space="preserve" viewBox="0 0 570 568">
    <g>
      <path d="M226.7,291.7c-18.6,0-36.4-7.4-49.5-20.5c-13.1-13.1-20.5-30.9-20.5-49.5H63.3c-12.4,0-24.2,4.9-33,13.7
		c-8.8,8.8-13.7,20.6-13.7,33v163.3c0,12.4,4.9,24.2,13.7,33c8.8,8.8,20.6,13.7,33,13.7H75v70l86.4-63.1c9.6-9.6,5.3-6.9,181.9-6.9
		c12.4,0,24.2-4.9,33-13.7c8.8-8.8,13.7-20.6,13.7-33v-140L226.7,291.7z M98.3,373.3c-6.2,0-12.1-2.5-16.5-6.8
		c-4.4-4.4-6.8-10.3-6.8-16.5s2.5-12.1,6.8-16.5c4.4-4.4,10.3-6.8,16.5-6.8c6.2,0,12.1,2.5,16.5,6.8s6.8,10.3,6.8,16.5
		s-2.5,12.1-6.8,16.5S104.5,373.3,98.3,373.3z M203.3,373.3c-6.2,0-12.1-2.5-16.5-6.8c-4.4-4.4-6.8-10.3-6.8-16.5s2.5-12.1,6.8-16.5
		c4.4-4.4,10.3-6.8,16.5-6.8c6.2,0,12.1,2.5,16.5,6.8s6.8,10.3,6.8,16.5s-2.5,12.1-6.8,16.5S209.5,373.3,203.3,373.3z M308.3,373.3
		c-6.2,0-12.1-2.5-16.5-6.8c-4.4-4.4-6.8-10.3-6.8-16.5s2.5-12.1,6.8-16.5c4.4-4.4,10.3-6.8,16.5-6.8c6.2,0,12.1,2.5,16.5,6.8
		s6.8,10.3,6.8,16.5s-2.5,12.1-6.8,16.5S314.5,373.3,308.3,373.3z"></path>
      <path d="M506.7,11.7h-280c-12.4,0-24.2,4.9-33,13.7c-8.8,8.7-13.7,20.6-13.7,33v163.3c0,12.4,4.9,24.2,13.7,33
		c8.8,8.8,20.6,13.7,33,13.7c176.5,0,172.3-2.7,181.9,6.9l86.4,63.1v-70h11.7c12.4,0,24.2-4.9,33-13.7c8.8-8.8,13.7-20.6,13.7-33
		V58.3c0-12.4-4.9-24.2-13.7-33C530.9,16.6,519,11.7,506.7,11.7L506.7,11.7z M366.7,202.9c-61.6-61.6-58.3-58.3-59.3-59.5h0
		c-7.3-8.1-11.2-18.7-10.8-29.6c0.4-10.9,5-21.2,12.8-28.8s18.3-11.7,29.2-11.7c10.3,0.2,20.3,4.1,28,11
		c8.1-7.3,18.7-11.2,29.6-10.8c10.9,0.4,21.2,5,28.8,12.8c7.5,7.9,11.7,18.3,11.7,29.2C436.7,140,420.9,148.6,366.7,202.9
		L366.7,202.9z"></path>
    </g>
  </svg>
  <svg version="1.1" id="submit" xmlns="http://www.w3.org/2000/svg" xmlns:xlink="http://www.w3.org/1999/xlink" x="0px" y="0px" xml:space="preserve" viewBox="0 0 603 600">
    <path d="M20,456.5C20,524.2,74.8,579,142.5,579h315c67.7,0,122.5-54.8,122.5-122.5v-315C580,73.8,525.2,19,457.5,19
	h-315C74.8,19,20,73.8,20,141.5V456.5z M317.5,421.5c0,9.7-7.8,17.5-17.5,17.5s-17.5-7.8-17.5-17.5V214.1l-93.7,79
	c-7.4,6.2-18.4,5.3-24.7-2.1c-6.2-7.4-5.3-18.4,2.1-24.7l122.5-103.3c6.5-5.5,16-5.5,22.6,0l122.5,103.3c7.4,6.2,8.3,17.3,2.1,24.7
	c-6.2,7.4-17.3,8.3-24.7,2.1l-93.7-79L317.5,421.5z"></path>
  </svg>
  <svg version="1.1" id="coding" xmlns="http://www.w3.org/2000/svg" xmlns:xlink="http://www.w3.org/1999/xlink" x="0px" y="0px" xml:space="preserve" viewBox="0 0 521 485">
    <g>
      <path d="M491.8,406.9l-43.1-125.6c0.5-1.4,0.8-2.8,0.8-4.3l-2.9-208.6c0-19.9-15.8-36.3-35-36.3H108.3c-19.3,0-35,16.2-35,36.3V275
		L28.2,406.7v0.5c-3.3,10.5-1.3,21.6,5.4,30.3c6.8,9.1,17.4,14.4,28.9,14.4l395,0c11.6,0,22.2-5.3,28.9-14.4
		c6.5-8.8,8.6-19.8,5.4-30.8L491.8,406.9z M96.7,68.3c0-7.1,5.3-12.9,11.7-12.9h303.3c6.4,0,11.7,5.8,11.7,13.1l2.7,196.9l-329.4,0
		L96.7,68.3z M301.1,405.3H225c-6.4,0-11.7-5.3-11.7-11.7S218.6,382,225,382h76.1c6.4,0,11.7,5.3,11.7,11.7S307.5,405.3,301.1,405.3
		z"></path>
      <path d="M285,91c-6.1-2.2-12.7,0.9-14.9,7l-42,116.7c-2.2,6.1,0.9,12.7,7,14.9c1.3,0.5,2.7,0.7,4,0.7c4.8,0,9.2-2.9,11-7.7L292,106
		C294.2,99.9,291,93.3,285,91L285,91z"></path>
      <path d="M217,114.5c-3.9-5.3-11.2-6.3-16.3-2.4l-52.5,38.9c-2.9,2.2-4.7,5.7-4.7,9.3s1.8,7.2,4.7,9.3l52.5,38.9
		c2.1,1.5,4.6,2.3,6.9,2.3c3.6,0,7.1-1.6,9.3-4.8c3.9-5.1,2.8-12.5-2.4-16.3l-39.9-29.5l39.9-29.5c5.1-3.9,6.3-11.2,2.4-16.3
		L217,114.5z"></path>
      <path d="M319.5,112c-5.1-3.9-12.5-2.8-16.3,2.4c-3.9,5.1-2.8,12.5,2.4,16.3l39.9,29.5l-39.9,29.5c-5.1,3.9-6.3,11.2-2.4,16.3
		c2.3,3.1,5.8,4.8,9.3,4.8c2.4,0,4.9-0.7,6.9-2.3l52.5-38.9c2.9-2.2,4.8-5.7,4.8-9.3s-1.8-7.2-4.8-9.3l-52.5-38.9L319.5,112z"></path>
    </g>
  </svg>
  <svg version="1.1" id="challenge" xmlns="http://www.w3.org/2000/svg" xmlns:xlink="http://www.w3.org/1999/xlink" x="0px" y="0px" xml:space="preserve" viewBox="0 0 504 509">
    <g>
      <path d="M161.7,476.9H256V308.7h-94.3L161.7,476.9z"></path>
      <path d="M289.6,476.9h94.3V236.6h-94.3L289.6,476.9z"></path>
      <path d="M33.7,476.9H128v-96.1H33.7V476.9z"></path>
      <path d="M319.9,35.1h33.6v172.7h-33.6V35.1z"></path>
      <path d="M463.6,116.8H336.7V35.1h126.9l-36,40.9L463.6,116.8z"></path>
    </g>
  </svg>
  <svg version="1.1" id="waves" xmlns="http://www.w3.org/2000/svg" xmlns:xlink="http://www.w3.org/1999/xlink" x="0px" y="0px" xml:space="preserve" viewBox="0 0 571 368" preserveAspectRatio="none">
    <g>
      <path d="M47.4,131.7c27.7,0,41-21.4,51.7-38.6c9.7-15.6,16.2-25.2,27.5-25.2c11.3,0,17.8,9.6,27.5,25.2
		c10.7,17.2,24,38.6,51.7,38.6c27.7,0,41-21.4,51.6-38.6c9.7-15.6,16.2-25.2,27.6-25.2s17.9,9.6,27.6,25.2
		c10.7,17.2,24,38.6,51.6,38.6c27.7,0,41-21.4,51.7-38.6c9.7-15.6,16.2-25.2,27.6-25.2c11.3,0,17.8,9.6,27.5,25.2
		c10.7,17.2,24,38.6,51.7,38.6c7.8,0,14.2-6.4,14.2-14.2c0-7.8-6.4-14.2-14.2-14.2c-11.3,0-17.9-9.6-27.6-25.2
		c-10.7-17.2-24-38.6-51.7-38.6c-27.7,0-41,21.4-51.7,38.6c-9.7,15.6-16.2,25.2-27.6,25.2c-11.3,0-17.8-9.6-27.5-25.2
		c-10.7-17.2-24-38.6-51.7-38.6c-27.7,0-41,21.4-51.7,38.6c-9.7,15.6-16.2,25.2-27.5,25.2c-11.3,0-17.9-9.6-27.5-25.2
		c-10.7-17.2-24-38.6-51.6-38.6c-27.7,0-41,21.4-51.6,38.6c-9.7,15.6-16.2,25.2-27.6,25.2c-7.8,0-14.2,6.4-14.2,14.2
		C33.2,125.4,39.5,131.7,47.4,131.7L47.4,131.7z"></path>
      <path d="M522.6,202.7c-11.3,0-17.9-9.6-27.6-25.2c-10.7-17.2-24-38.6-51.7-38.6c-27.7,0-41,21.4-51.7,38.6
		c-9.7,15.6-16.2,25.2-27.6,25.2c-11.3,0-17.8-9.6-27.5-25.2c-10.7-17.2-24-38.6-51.7-38.6s-41,21.4-51.7,38.6
		c-9.7,15.6-16.2,25.2-27.5,25.2c-11.3,0-17.9-9.6-27.5-25.2c-10.7-17.2-24-38.6-51.6-38.6c-27.7,0-41,21.4-51.6,38.6
		c-9.7,15.6-16.2,25.2-27.6,25.2c-7.8,0-14.2,6.4-14.2,14.2c0,7.8,6.4,14.2,14.2,14.2c27.7,0,41-21.4,51.7-38.6
		c9.7-15.6,16.2-25.2,27.5-25.2c11.3,0,17.8,9.6,27.5,25.2c10.7,17.2,24,38.6,51.7,38.6c27.7,0,41-21.4,51.6-38.6
		c9.7-15.6,16.2-25.2,27.6-25.2s17.9,9.6,27.6,25.2c10.7,17.2,24,38.6,51.6,38.6c27.7,0,41-21.4,51.7-38.6
		c9.7-15.6,16.2-25.2,27.6-25.2c11.3,0,17.8,9.6,27.5,25.2c10.7,17.2,24,38.6,51.7,38.6c7.8,0,14.2-6.4,14.2-14.2
		C536.8,209.1,530.5,202.7,522.6,202.7L522.6,202.7z"></path>
      <path d="M522.6,302.1c-11.3,0-17.9-9.6-27.6-25.2c-10.7-17.2-24-38.6-51.7-38.6c-27.7,0-41,21.4-51.7,38.6
		c-9.7,15.6-16.2,25.2-27.6,25.2c-11.3,0-17.8-9.6-27.5-25.2c-10.7-17.2-24-38.6-51.7-38.6s-41,21.4-51.7,38.6
		c-9.7,15.6-16.2,25.2-27.5,25.2c-11.3,0-17.9-9.6-27.5-25.2c-10.7-17.2-24-38.6-51.6-38.6c-27.7,0-41,21.4-51.6,38.6
		c-9.7,15.6-16.2,25.2-27.6,25.2c-7.8,0-14.2,6.3-14.2,14.2c0,7.8,6.4,14.2,14.2,14.2c27.7,0,41-21.4,51.7-38.6
		c9.7-15.6,16.2-25.2,27.5-25.2c11.3,0,17.8,9.6,27.5,25.2c10.7,17.2,24,38.6,51.7,38.6c27.7,0,41-21.4,51.6-38.6
		c9.7-15.6,16.2-25.2,27.6-25.2s17.9,9.6,27.6,25.2c10.7,17.2,24,38.6,51.6,38.6c27.7,0,41-21.4,51.7-38.6
		c9.7-15.6,16.2-25.2,27.6-25.2c11.3,0,17.8,9.6,27.5,25.2c10.7,17.2,24,38.6,51.7,38.6c7.8,0,14.2-6.4,14.2-14.2
		C536.8,308.5,530.5,302.1,522.6,302.1L522.6,302.1z"></path>
    </g>
  </svg>
  <svg version="1.1" id="cross" xmlns="http://www.w3.org/2000/svg" xmlns:xlink="http://www.w3.org/1999/xlink" x="0px" y="0px" xml:space="preserve" viewBox="0 0 365 344">
    <g>
      <path d="M311.7,26.5L181,157.2L50.3,26.5L34.5,42.3L165.2,173L34.5,303.7l15.8,15.8L181,188.8l130.7,130.7l15.8-15.8L196.8,173
		L327.5,42.3L311.7,26.5z"></path>
    </g>
  </svg>
  <svg id="glass" xmlns="http://www.w3.org/2000/svg" viewBox="0 0 363.38 529.53">
    <g>
      <path d="m229.97,391.35s44.32,86.16,63.52,123.5c6.77,13.3,23.03,18.52,36.36,11.66l18.84-9.69c13.3-6.77,18.52-23.03,11.66-36.36l-63.52-123.5c-2.01-3.91-6.88-5.47-10.79-3.46l-52.62,27.06c-3.91,2.01-5.47,6.88-3.46,10.79h0Zm50.78-44.06l-44.38-86.28c54.06-42.33,72.23-118.43,39.67-181.73C239.17,7.6,150.97-20.69,79.28,16.18,7.6,53.05-20.69,141.26,16.18,212.94c32.56,63.3,105.06,92.69,170.91,73.42l44.38,86.28,49.28-25.35h0ZM92.64,42.14c-57.41,29.46-80.04,100-50.49,157.45,29.57,57.35,100.12,79.98,157.45,50.49,57.35-29.57,79.98-100.12,50.49-157.45-29.57-57.35-100.12-79.98-157.45-50.49h0Z" fill-rule="evenodd"/>
    </g>
  </svg>
  <svg version="1.1" id="dropdown" xmlns="http://www.w3.org/2000/svg" xmlns:xlink="http://www.w3.org/1999/xlink" x="0px" y="0px" xml:space="preserve" viewBox="0 0 279 219">
    <path d="M33.3,77.9l92.2,92.2c9.1,9.1,23.9,9.1,33,0l92.2-92.2c14.7-14.7,4.3-39.8-16.5-39.8H49.8C29.1,38.1,18.6,63.2,33.3,77.9z"></path>
  </svg>
  <svg version="1.1" id="worldwide" xmlns="http://www.w3.org/2000/svg" xmlns:xlink="http://www.w3.org/1999/xlink" x="0px" y="0px" xml:space="preserve" viewBox="0 0 500 515">
    <g>
      <path d="M157,126.1h84V32C206,36.4,175.8,72.6,157,126.1z"></path>
      <path d="M152.1,371.4H241V263H136C136.4,299.7,141.8,336.1,152.1,371.4L152.1,371.4z"></path>
      <path d="M343.9,140.6H255V249h105C359.6,212.3,354.2,175.9,343.9,140.6z"></path>
      <path d="M136,249h105V140.6h-88.9C141.8,175.9,136.4,212.3,136,249L136,249z"></path>
      <path d="M255,32v94.1h84C320.2,72.6,290,36.4,255,32z"></path>
      <path d="M122,263H24c1.2,38.2,12.1,75.4,31.8,108.1h81.1C127.3,335.9,122.3,299.5,122,263z"></path>
      <path d="M359.1,371.4h81.6c19.7-32.8,30.7-70.1,31.8-108.4H374C373.8,299.6,368.8,336,359.1,371.4z"></path>
      <path d="M241,480v-94.1h-84C175.8,439.4,206,475.6,241,480z"></path>
      <path d="M136.9,140.6H55.4C35.6,173.4,24.7,210.7,23.6,249H122C122.2,212.4,127.2,176,136.9,140.6z"></path>
      <path d="M141.4,385.9H64.9c31.5,44.4,78,75.8,131,88.5C173.3,455.6,154.5,424.7,141.4,385.9L141.4,385.9z"></path>
      <path d="M195.9,37.6c-52.9,12.7-99.5,44.2-131,88.5h76.5C154.5,87.3,173.3,56.4,195.9,37.6L195.9,37.6z"></path>
      <path d="M300.1,474.4c52.9-12.7,99.5-44.2,131-88.5h-76.5C341.5,424.7,322.7,455.6,300.1,474.4L300.1,474.4z"></path>
      <path d="M255,385.9V480c34.6-4.5,64.9-40.7,84-94.2L255,385.9z"></path>
      <path d="M354.6,126.1h76.5c-31.5-44.4-78-75.8-131-88.5C322.7,56.4,341.5,87.3,354.6,126.1L354.6,126.1z"></path>
      <path d="M360,263H255v108.4h88.9C354.2,336.1,359.6,299.7,360,263z"></path>
      <path d="M374,249h98c-1.2-38.2-12.1-75.4-31.8-108.1h-81.1C368.7,176.1,373.7,212.5,374,249z"></path>
    </g>
  </svg>
  <svg version="1.1" id="night" xmlns="http://www.w3.org/2000/svg" xmlns:xlink="http://www.w3.org/1999/xlink" x="0px" y="0px" xml:space="preserve" viewBox="0 0 543 567">
    <g>
      <path d="M493.2,386.2c-38.4,88.1-125.5,145.2-221.9,145.2c-133.6,0-242.5-108.9-242.5-242.5C28.8,193.1,85.6,106,173.4,67
		c7.7-3.5,17-1.9,23,4.4c6,6,7.9,15.1,4.4,22.8C127.5,262.4,300,432.4,465.8,359c7.9-3.5,17-1.9,23,4.1
		C494.9,369.2,496.7,378.3,493.2,386.2L493.2,386.2z"></path>
      <path d="M517.3,83.3c-23.2-8.8-41.7-27.4-50.4-50.8c-1.9-5.2-8.8-5.2-10.8,0c-8.8,23.2-27.5,41.7-51,50.3c-5.2,1.9-5.2,8.9,0,10.8
		c23.4,8.8,42,27.4,50.7,50.8c1.9,5.2,8.8,5.2,10.8,0c8.8-23.2,27.4-41.7,50.7-50.4C522.5,92.2,522.5,85.3,517.3,83.3L517.3,83.3z"></path>
      <path d="M353.5,178.8c-23.2-8.8-41.7-27.4-50.4-50.8c-1.9-5.2-8.8-5.2-10.8,0c-8.8,23.2-27.5,41.7-51,50.3c-5.2,1.9-5.2,8.9,0,10.8
		c23.4,8.8,42,27.4,50.7,50.8c1.9,5.2,8.8,5.2,10.8,0c8.8-23.2,27.4-41.7,50.7-50.4C358.7,187.7,358.7,180.8,353.5,178.8
		L353.5,178.8z"></path>
    </g>
  </svg>
   <svg version="1.1" id="profile" xmlns="http://www.w3.org/2000/svg" xmlns:xlink="http://www.w3.org/1999/xlink" x="0px" y="0px" xml:space="preserve" viewBox="0 0 484 509">
    <g>
      <path d="M268.6,269h-48.7c-101.4,0-183.1,81.8-183.1,182.6c0,7.3,6.2,13.4,13.4,13.4h388.1c7.3,0,13.4-6.2,13.4-13.4
		C451.2,350.8,369.4,269,268.6,269L268.6,269z"></path>
      <path d="M322.4,151.4v-44.8c0-43.1-35.3-78.4-78.4-78.4c-43.1,0-78.4,35.3-78.4,78.4v44.8c0,43.1,35.3,78.4,78.4,78.4
		C287.1,229.8,322.4,194.5,322.4,151.4z"></path>
    </g>
  </svg>
  <svg version="1.1" id="bell" xmlns="http://www.w3.org/2000/svg" xmlns:xlink="http://www.w3.org/1999/xlink" x="0px" y="0px" xml:space="preserve" viewBox="0 0 563 608">
    <g>
      <path d="M67.7,498.1c-42.5,0-42.5-66.7,0-66.7c38.4,0,40.4-125.3,40.4-169.8c0-101.1,56.6-161.7,125.3-179.9
		C227.4,51.3,249.6,21,282,21s56.6,30.3,50.5,60.6c66.7,18.2,123.3,78.8,123.3,179.9c0,44.5,4,169.8,40.4,169.8
		c44.5,0,44.5,66.7,0,66.7H67.7z M257.7,75.6c16.2-2,32.3-2,48.5,0c4-14.2-8.1-28.3-24.3-28.3C265.8,47.3,253.7,61.4,257.7,75.6
		L257.7,75.6z"></path>
      <path d="M320.4,512.3c18.2,30.3-4,68.7-38.4,68.7s-54.6-38.4-38.4-68.7L320.4,512.3L320.4,512.3z"></path>
    </g>
  </svg>
  <svg version="1.1" id="home" xmlns="http://www.w3.org/2000/svg" xmlns:xlink="http://www.w3.org/1999/xlink" x="0px" y="0px" xml:space="preserve" viewBox="0 0 313 326">
    <g id="XMLID_1_">
      <g>
        <path d="M282.7,148.7c4.5,4.3,4.7,11.4,0.4,15.8l-7.8,8.1c-4.3,4.5-11.4,4.6-15.8,0.4l1.3,1.2c-2.2-2.1-4-1.3-4,1.8v104.6
			c0,6.2-5,11.2-11.2,11.2H66.4c-6.2,0-11.2-5.1-11.2-11.2V176.1c0-3.1-1.8-3.9-4-1.8l1.3-1.2c-4.5,4.3-11.5,4.1-15.8-0.4l-7.8-8.1
			c-4.3-4.5-4.1-11.5,0.4-15.8L147.9,35.5c4.5-4.3,11.7-4.3,16.3,0L282.7,148.7z M192.8,252.5V244c0-3.7-3-6.7-6.7-6.7H127
			c-3.7,0-6.7,3-6.7,6.7v8.5c0,3.7,3,6.7,6.7,6.7H186C189.7,259.2,192.8,256.2,192.8,252.5z"></path>
      </g>
      <g></g>
    </g>
  </svg>
  <svg version="1.1" id="sun" xmlns="http://www.w3.org/2000/svg" xmlns:xlink="http://www.w3.org/1999/xlink" x="0px" y="0px" xml:space="preserve" viewBox="0 0 577 568">
    <g>
      <path d="M279.3,531.6c-2.9-2.9-4.5-6.8-4.4-10.8v-65.2c0-5.4,2.9-10.3,7.5-13c4.7-2.7,10.4-2.7,15,0c4.7,2.7,7.5,7.7,7.5,13v65.2
		c0.1,4-1.5,7.8-4.3,10.7c-2.8,2.9-6.6,4.5-10.6,4.6H290C286,536,282.2,534.4,279.3,531.6L279.3,531.6z M446.7,462l-46.1-46.1
		c-2.9-2.8-4.5-6.7-4.5-10.7c0-4,1.6-7.9,4.4-10.7c2.8-2.8,6.7-4.4,10.7-4.4c4,0,7.9,1.7,10.7,4.5l46.1,46.1h0
		c2.9,2.8,4.5,6.6,4.5,10.7c0,4-1.6,7.9-4.4,10.7c-2.8,2.8-6.7,4.4-10.7,4.4C453.4,466.5,449.5,464.9,446.7,462L446.7,462z
		 M111.9,462.3L111.9,462.3c-2.9-2.8-4.6-6.7-4.6-10.8s1.6-8,4.6-10.8l46.1-46.1h0c2.8-2.9,6.6-4.5,10.7-4.5c4,0,7.9,1.6,10.7,4.4
		c2.8,2.8,4.4,6.7,4.4,10.7c0,4-1.7,7.9-4.5,10.7L133.2,462h0c-2.8,2.9-6.6,4.5-10.6,4.6C118.7,466.6,114.8,465.1,111.9,462.3
		L111.9,462.3z M174.4,284c0-30.7,12.2-60.1,33.9-81.7c21.7-21.7,51.1-33.9,81.7-33.9c30.7,0,60.1,12.2,81.7,33.9
		c21.7,21.7,33.9,51.1,33.9,81.7c0,30.7-12.2,60.1-33.9,81.7s-51.1,33.9-81.7,33.9c-30.7,0-60.1-12.2-81.7-33.9
		C186.6,344,174.4,314.6,174.4,284z M446.4,284c0-4,1.6-7.8,4.4-10.6c2.8-2.8,6.6-4.4,10.6-4.4h65.2c4-0.1,7.9,1.5,10.8,4.3
		c2.9,2.8,4.5,6.7,4.5,10.7c0,4-1.6,7.9-4.5,10.7c-2.9,2.8-6.8,4.4-10.8,4.3h-65.2c-4,0-7.8-1.6-10.6-4.4
		C448,291.8,446.4,288,446.4,284L446.4,284z M53.2,299c-4,0.1-7.9-1.5-10.8-4.3C39.6,291.9,38,288,38,284c0-4,1.6-7.9,4.5-10.7
		c2.9-2.8,6.7-4.4,10.8-4.3h65.2c5.4,0,10.3,2.9,13,7.5c2.7,4.7,2.7,10.4,0,15c-2.7,4.7-7.7,7.5-13,7.5L53.2,299z M400.6,173.4
		c-2.8-2.8-4.4-6.6-4.4-10.6s1.6-7.8,4.4-10.6l46.1-46.1c2.8-2.9,6.6-4.5,10.7-4.5c4,0,7.9,1.6,10.7,4.4c2.8,2.8,4.4,6.7,4.4,10.7
		s-1.7,7.9-4.5,10.7l-46.1,46.1c-2.8,2.8-6.6,4.4-10.6,4.4S403.4,176.2,400.6,173.4L400.6,173.4z M158.1,173.3L112,127.2h0
		c-2.9-2.8-4.5-6.6-4.5-10.7s1.6-7.9,4.4-10.7c2.8-2.8,6.7-4.4,10.7-4.4c4,0,7.9,1.7,10.7,4.5l46.1,46.1h0c2.8,2.8,4.4,6.6,4.5,10.6
		c0,4-1.6,7.8-4.4,10.7c-2.8,2.8-6.7,4.4-10.7,4.4S160.9,176.2,158.1,173.3L158.1,173.3z M274.9,112.5V47.3v-0.2
		c0-5.4,2.9-10.3,7.5-13c4.7-2.7,10.4-2.7,15,0c4.7,2.7,7.5,7.6,7.5,13v0.2v65.2c0,5.4-2.9,10.3-7.5,13c-4.7,2.7-10.4,2.7-15,0
		C277.8,122.8,274.9,117.9,274.9,112.5L274.9,112.5z"></path>
    </g>
  </svg>
  <svg version="1.1" id="eye" xmlns="http://www.w3.org/2000/svg" xmlns:xlink="http://www.w3.org/1999/xlink" x="0px" y="0px" viewBox="0 0 394.3 157.1" style="enable-background:new 0 0 394.3 157.1;" xml:space="preserve">
    <path d="M394.3,84.8l-39.2,39.1c-23.1-22.7-50.7-40.1-81.2-51.2c2.3,25-7.8,49.6-26.9,65.8c-14.1,12.1-32.1,18.7-50.6,18.6
      c-21.5-0.3-41.9-9.4-56.5-25.2S117.8,95,119.2,73.6c-30.3,10.3-57.8,27.4-80.4,50L0,84.3C52.4,32.1,123.3,2.9,197.3,3
      C271.1,3.1,342,32.5,394.3,84.8L394.3,84.8z"/>
  </svg>
  <svg version="1.1" id="closedEye" xmlns="http://www.w3.org/2000/svg" xmlns:xlink="http://www.w3.org/1999/xlink" x="0px" y="0px" viewBox="0 0 394.3 120.9" style="enable-background:new 0 0 394.3 120.9;" xml:space="preserve">
    <path d="M0,39.1L39.2,0c23.1,22.7,50.7,40.1,81.2,51.2c29.1,12.9,111.3,17.5,154.7-0.9c30.3-10.3,57.8-27.4,80.4-50l38.8,39.3
      C341.9,91.8,271,121,197,120.9C123.1,120.8,52.2,91.4,0,39.1L0,39.1z"/>
  </svg>

  <svg version="1.1" id="back" xmlns="http://www.w3.org/2000/svg" xmlns:xlink="http://www.w3.org/1999/xlink" x="0px" y="0px" viewBox="0 0 527.4 453.5" style="enable-background:new 0 0 527.4 453.5;" xml:space="preserve">
    <g>
      <path d="M527.4,292.7c0,88.5-72.2,160.7-160.7,160.7c-20.2,0-36.4-16.2-36.4-36.4c0-20.2,16.2-36.4,36.4-36.4
        c48.2,0,87.9-39.2,87.9-87.9c0-48.2-39.2-87.9-87.9-87.9l-242.5,0l70.6,70.6c14,14,14,37.5,0,51.5c-7.3,7.3-16.2,10.6-25.8,10.6
        c-9.5,0-18.5-3.4-25.8-10.6L10.5,194.7c-14-14-14-37.5,0-51.5L143.2,10.5c14-14,37.5-14,51.5,0s14,37.5,0,51.5l-70.6,70.6h242.5
        C455.1,132.6,527.4,204.3,527.4,292.7L527.4,292.7z"/>
    </g>
  </svg>
  <svg id="dot" viewBox="0 0 29 7" fill="none" xmlns="http://www.w3.org/2000/svg">
    <path d="M17.9375 3.5C17.9375 5.4625 16.2847 7 14.35 7C12.4153 7 10.7625 5.3875 10.7625 3.5C10.7625 1.6125 12.4153 0 14.35 0C16.2847 0 17.9375 1.6125 17.9375 3.5ZM25.1125 0C23.1009 0 21.525 1.6125 21.525 3.5C21.525 5.3875 23.1009 7 25.1125 7C27.1241 7 28.7 5.3875 28.7 3.5C28.7 1.6125 27.1241 0 25.1125 0ZM3.5875 0C1.57594 0 0 1.6125 0 3.5C0 5.3875 1.65281 7 3.5875 7C5.52219 7 7.175 5.3875 7.175 3.5C7.175 1.6125 5.59906 0 3.5875 0Z" fill="black"/>
  </svg>
  <svg id="down" xmlns="http://www.w3.org/2000/svg" viewBox="0 0 20 10">
    <g>
      <path d="m18,0c0,4.42-3.58,8-8,8S2,4.42,2,0" fill="none" stroke="currentColor" stroke-width="4"/>
    </g>
  </svg>
  <svg id="twitter" viewBox="0 0 30 25"  xmlns="http://www.w3.org/2000/svg">
    <g clip-path="url(#clip0_86_220)">
      <path d="M29.1667 4.75338e-05C29.1667 4.75338e-05 28.1458 3.08828 26.25 5.00005C28.5833 19.7059 12.5417 30.4412 0 22.0589C3.20833 22.2059 6.41667 21.1765 8.75 19.1177C1.45833 16.9118 -2.1875 8.23534 1.45833 1.47064C4.66667 5.29417 9.625 7.50005 14.5833 7.35299C13.2708 1.17652 20.4167 -2.35289 24.7917 1.76475C26.3958 1.76475 29.1667 4.75338e-05 29.1667 4.75338e-05Z" />
    </g>
    <defs>
      <clipPath id="clip0_86_220">
        <rect width="29.1667" height="25" />
      </clipPath>
    </defs>
  </svg>
  <svg id="facebook" viewBox="0 0 14 25"  xmlns="http://www.w3.org/2000/svg">
    <g clip-path="url(#clip0_86_222)">
      <path d="M14 0H10.1818C6.61818 0 3.81818 2.75 3.81818 6.25V10H0V15H3.81818V25H8.90909V15H12.7273L14 10H8.90909V6.25C8.90909 5.5 9.41818 5 10.1818 5H14V0Z" />
    </g>
    <defs>
    <clipPath id="clip0_86_222">
      <rect width="14" height="25" />
    </clipPath>
    </defs>
  </svg>
  <svg id="linkedin" viewBox="0 0 26 25" xmlns="http://www.w3.org/2000/svg">
    <g clip-path="url(#clip0_86_224)">
      <path d="M18.2 7.89478C22.49 7.89478 26 11.4474 26 15.7895V25H20.8V15.7895C20.8 14.3421 19.63 13.1579 18.2 13.1579C16.77 13.1579 15.6 14.3421 15.6 15.7895V25H10.4V15.7895C10.4 11.4474 13.91 7.89478 18.2 7.89478Z" />
      <path d="M5.2 9.21045H0V24.9999H5.2V9.21045Z" />
      <path d="M2.6 5.26316C4.03594 5.26316 5.2 4.08496 5.2 2.63158C5.2 1.1782 4.03594 0 2.6 0C1.16406 0 0 1.1782 0 2.63158C0 4.08496 1.16406 5.26316 2.6 5.26316Z" />
    </g>
    <defs>
      <clipPath id="clip0_86_224">
        <rect width="26" height="25" />
      </clipPath>
    </defs>
  </svg>
  <svg id="create" viewBox="0 0 21 20"  xmlns="http://www.w3.org/2000/svg" stroke="none">
    <path d="M17.6623 0H6.21076C4.925 0 3.87233 1.05149 3.87233 2.3358V3.86796H2.33843C1.05267 3.86796 0 4.91945 0 6.20376V17.665C0 18.9493 1.05267 20.0008 2.33843 20.0008H13.79C15.0758 20.0008 16.1284 18.9493 16.1284 17.665V16.129H17.6661C18.9518 16.129 20.0045 15.0775 20.0045 13.7932V2.3358C20.0007 1.05149 18.9481 0 17.6623 0ZM8.92515 16.1516C8.92515 16.636 8.54543 17.0153 8.06045 17.0153C7.82736 17.0153 7.59803 16.9101 7.45141 16.7637C7.30479 16.6172 7.19952 16.3844 7.19952 16.1553V12.7906H3.83097C3.59788 12.7906 3.36855 12.6854 3.22193 12.539C3.0753 12.3925 2.97004 12.1597 2.97004 11.9306C2.97004 11.4462 3.34975 11.0669 3.83473 11.0669H7.20328V7.69837C7.20328 7.21394 7.58299 6.83465 8.06797 6.83465C8.55295 6.83465 8.93267 7.21394 8.93267 7.69837V11.0631H12.2937C12.7787 11.0631 13.1584 11.4424 13.1584 11.9268C13.1584 12.4113 12.7787 12.7906 12.2937 12.7906H8.92515V16.1516ZM18.2751 13.7745C18.2751 14.1124 18.0007 14.3828 17.6661 14.3828H16.1284V6.20376C16.1284 4.91945 15.0758 3.86796 13.79 3.86796H5.57916V2.3358C5.57916 1.99782 5.8536 1.72744 6.1882 1.72744H17.6623C18.0007 1.72744 18.2714 2.00158 18.2714 2.3358L18.2751 13.7745Z" />
  </svg>
  <svg id="camera" viewBox="0 0 27 21" xmlns="http://www.w3.org/2000/svg">
    <path d="M25.6597 3.07671H20.5257L19.7835 1.37301C19.5979 0.947086 19.1649 0.642853 18.6701 0.642853H9.14428C8.64944 0.642853 8.21645 0.947086 8.03088 1.37301L7.28861 3.07671H2.15459C1.47418 3.07671 0.91748 3.62433 0.91748 4.29365V18.8968C0.91748 19.5661 1.47418 20.1138 2.15459 20.1138H25.6597C26.3402 20.1138 26.8969 19.5661 26.8969 18.8968V4.29365C26.8969 3.62433 26.3402 3.07671 25.6597 3.07671ZM4.01026 7.33597C3.32985 7.33597 2.77315 6.78836 2.77315 6.11904C2.77315 5.44973 3.32985 4.90211 4.01026 4.90211C4.69068 4.90211 5.24738 5.44973 5.24738 6.11904C5.24738 6.78836 4.69068 7.33597 4.01026 7.33597ZM13.9072 17.6799C10.5051 17.6799 7.7216 14.9418 7.7216 11.5952C7.7216 8.24867 10.5051 5.51058 13.9072 5.51058C17.3092 5.51058 20.0927 8.24867 20.0927 11.5952C20.0927 14.9418 17.3092 17.6799 13.9072 17.6799ZM18.8556 11.5952C18.8556 14.2725 16.6288 16.463 13.9072 16.463C11.1855 16.463 8.95872 14.2725 8.95872 11.5952C8.95872 8.91798 11.1855 6.72751 13.9072 6.72751C16.6288 6.72751 18.8556 8.91798 18.8556 11.5952Z"/>
  </svg>
  <svg id="img" viewBox="0 0 26 26" xmlns="http://www.w3.org/2000/svg">
    <path d="M25.1875 0.404358H0.8125C0.56875 0.404358 0.40625 0.5661 0.40625 0.808712V25.07C0.40625 25.3126 0.56875 25.4743 0.8125 25.4743H25.1875C25.4312 25.4743 25.5938 25.3126 25.5938 25.07V0.808712C25.5938 0.5661 25.4312 0.404358 25.1875 0.404358ZM11.375 4.4479C12.9594 4.4479 14.2188 5.7014 14.2188 7.27839C14.2188 8.85537 12.9594 10.1089 11.375 10.1089C9.79062 10.1089 8.53125 8.85537 8.53125 7.27839C8.53125 5.7014 9.79062 4.4479 11.375 4.4479ZM21.9375 21.4308H4.0625C3.9 21.4308 3.77813 21.3499 3.69688 21.2286C3.61563 21.1073 3.61563 20.9456 3.69688 20.8243L7.75938 13.5459C7.8 13.4246 7.92187 13.3841 8.04375 13.3437C8.16562 13.3033 8.2875 13.3437 8.36875 13.4246L12.1062 16.3764L15.925 11.0793C16.0063 10.958 16.1281 10.9176 16.2906 10.9176C16.4125 10.9176 16.5344 10.9984 16.6156 11.1198L22.2625 20.7434C22.3438 20.8243 22.3438 20.9051 22.3438 21.0264C22.3438 21.2691 22.1812 21.4308 21.9375 21.4308Z" />
  </svg>
  <svg id="like" xmlns="http://www.w3.org/2000/svg" viewBox="0 0 30 26">
    <path d="m15,26c-.23,0-.47-.03-.73-.1-.1-.02-.16-.06-.23-.08l-.08-.03c-.12-.04-.23-.09-.34-.15-.13-.07-13.62-7.53-13.62-16.1C0,4.1,3.69,0,8.59,0c2.16,0,4.63,1.12,6.41,2.86,1.78-1.74,4.26-2.86,6.41-2.86,4.9,0,8.59,4.1,8.59,9.54,0,8.57-13.49,16.04-13.62,16.12-.11.06-.22.1-.34.15l-.07.02c-.08.03-.15.06-.22.08-.28.07-.51.1-.75.1ZM8.59,1.88c-3.85,0-6.75,3.29-6.75,7.65,0,6.15,9.37,12.66,12.65,14.45.01.01.04.01.07.02l.09.03s.07.02.11.04c.13.03.3.04.49,0,.05-.02.09-.03.12-.04l.08-.02s.05-.01.08-.02c3.27-1.79,12.65-8.29,12.65-14.45,0-4.36-2.9-7.65-6.75-7.65-1.93,0-4.27,1.21-5.71,2.96-.18.21-.43.34-.7.34s-.53-.12-.7-.34c-1.44-1.76-3.79-2.97-5.71-2.97Z" fill="#171717"/>
    <path d="m21.41,1.9c-1.93,0-4.27,1.21-5.71,2.96-.17.21-.43.34-.7.34s-.53-.12-.7-.34c-1.44-1.76-3.79-2.97-5.71-2.97-3.85,0-6.75,3.29-6.75,7.65,0,6.15,9.37,12.66,12.65,14.45.01.01.04.01.07.02l.09.03s.07.02.11.04c.13.03.3.04.49,0,.05-.02.09-.03.12-.04l.08-.02s.05-.01.08-.02c3.27-1.79,12.65-8.29,12.65-14.45,0-4.36-2.9-7.65-6.75-7.65Z"  />
  </svg>
  <svg id="directory--open">
    <path d="M12.5526 12.6667H3.66675C3.2922 12.6667 2.96575 12.4608 2.79442 12.156L3.81072 8.0908C3.92201 7.64563 4.32199 7.33333 4.78086 7.33333H13.386C14.0365 7.33333 14.5139 7.94472 14.3561 8.57587L13.5228 11.9092C13.4115 12.3544 13.0115 12.6667 12.5526 12.6667Z"/>
    <path d="M13.3334 6.63333V6.33333C13.3334 5.78105 12.8857 5.33333 12.3334 5.33333H8.30286C8.10543 5.33333 7.91242 5.2749 7.74816 5.16538L6.25201 4.16795C6.08774 4.05844 5.89473 4 5.69731 4H3.66675C3.11446 4 2.66675 4.44772 2.66675 5L2.66675 11.6667C2.66675 12.219 3.11446 12.6667 3.66675 12.6667H12.5526C13.0115 12.6667 13.4115 12.3544 13.5228 11.9092L14.3561 8.57587C14.5139 7.94472 14.0365 7.33333 13.386 7.33333H4.78086C4.32199 7.33333 3.92201 7.64563 3.81072 8.0908L2.75008 12.3333" fill="none" stroke="currentColor" strokeLinecap="round" />
  </svg>
  <svg id="directory--closed">
    <path d="M12.3334 12.6667H3.66675C3.11446 12.6667 2.66675 12.219 2.66675 11.6667V5C2.66675 4.44772 3.11446 4 3.66675 4H5.69731C5.89473 4 6.08774 4.05844 6.25201 4.16795L7.74816 5.16538C7.91242 5.2749 8.10543 5.33333 8.30286 5.33333H12.3334C12.8857 5.33333 13.3334 5.78105 13.3334 6.33333V11.6667C13.3334 12.219 12.8857 12.6667 12.3334 12.6667Z" stroke="currentColor" strokeLinecap="round" />
  </svg>
  <svg id="file">
    <path clipRule="evenodd" d="M4.5 4.33325C4.5 4.05711 4.72386 3.83325 5 3.83325H8.16675V6.56659C8.16675 6.89795 8.43538 7.16658 8.76675 7.16658H11.5V12.3333C11.5 12.6094 11.2761 12.8333 11 12.8333H5C4.72386 12.8333 4.5 12.6094 4.5 12.3333V4.33325ZM12.5 6.67568C12.5001 6.67265 12.5001 6.66962 12.5001 6.66658C12.5001 6.66355 12.5001 6.66052 12.5 6.65749V6.41413C12.5 6.01631 12.342 5.63478 12.0607 5.35347L9.97978 3.27259C9.69848 2.99129 9.31694 2.83325 8.91912 2.83325H8.66675H5C4.17157 2.83325 3.5 3.50483 3.5 4.33325V12.3333C3.5 13.1617 4.17157 13.8333 5 13.8333H11C11.8284 13.8333 12.5 13.1617 12.5 12.3333V6.67568ZM9.16675 3.89888C9.20518 3.92078 9.24085 3.94787 9.27267 3.9797L11.3536 6.06058C11.3854 6.09243 11.4125 6.12813 11.4344 6.16658H9.16675V3.89888Z" fillRule="evenodd"/>
  </svg>
  <svg id="upload" viewBox="0 0 29 21" xmlns="http://www.w3.org/2000/svg" stroke="none">
    <path d="M25.2372 3.50178C25.2372 2.92883 24.5045 2.46501 23.6309 2.46501H12.7809C11.9072 2.46501 11.1745 1.94662 11.1745 1.29181C11.1745 0.63701 10.4418 0.118624 9.56815 0.118624H5.36906C4.49542 0.118624 3.7627 0.63701 3.7627 1.29181C3.7627 1.94662 3.7627 2.92882 3.7627 3.44721C3.7627 3.99288 3.7627 4.42942 3.7627 4.42942L25.2372 4.53855C25.2372 4.53855 25.2372 4.07473 25.2372 3.50178Z" />
    <path d="M27.3228 5.82088H1.67735C0.803715 5.82088 0.240079 6.50296 0.437351 7.32147L3.36826 18.9715C3.56553 19.8173 4.46735 20.4721 5.36917 20.4721H23.631C24.5046 20.4721 25.4064 19.79 25.6319 18.9715L28.5628 7.32147C28.7601 6.50296 28.1964 5.82088 27.3228 5.82088Z" />
  </svg>
  <svg id="github" viewBox="0 0 98 96" xmlns="http://www.w3.org/2000/svg">
    <path fill-rule="evenodd" clip-rule="evenodd" d="M48.854 0C21.839 0 0 22 0 49.217c0 21.756 13.993 40.172 33.405 46.69 2.427.49 3.316-1.059 3.316-2.362 0-1.141-.08-5.052-.08-9.127-13.59 2.934-16.42-5.867-16.42-5.867-2.184-5.704-5.42-7.17-5.42-7.17-4.448-3.015.324-3.015.324-3.015 4.934.326 7.523 5.052 7.523 5.052 4.367 7.496 11.404 5.378 14.235 4.074.404-3.178 1.699-5.378 3.074-6.6-10.839-1.141-22.243-5.378-22.243-24.283 0-5.378 1.94-9.778 5.014-13.2-.485-1.222-2.184-6.275.486-13.038 0 0 4.125-1.304 13.426 5.052a46.97 46.97 0 0 1 12.214-1.63c4.125 0 8.33.571 12.213 1.63 9.302-6.356 13.427-5.052 13.427-5.052 2.67 6.763.97 11.816.485 13.038 3.155 3.422 5.015 7.822 5.015 13.2 0 18.905-11.404 23.06-22.324 24.283 1.78 1.548 3.316 4.481 3.316 9.126 0 6.6-.08 11.897-.08 13.526 0 1.304.89 2.853 3.316 2.364 19.412-6.52 33.405-24.935 33.405-46.691C97.707 22 75.788 0 48.854 0z"/>
  </svg>
  <svg id="fullscreen" xmlns="http://www.w3.org/2000/svg" viewBox="0 0 20 20">
    <path fill-rule="evenodd" d="M1 1v6h2V3h4V1H1zm2 12H1v6h6v-2H3v-4zm14 4h-4v2h6v-6h-2v4zm0-16h-4v2h4v4h2V1h-2z"/>
  </svg>
  <svg id="explore" version="1.0" xmlns="http://www.w3.org/2000/svg"
 viewBox="0 0 512.000000 512.000000"
 preserveAspectRatio="xMidYMid meet">

<g transform="translate(0.000000,512.000000) scale(0.100000,-0.100000)"
fill="#000000" stroke="none">
<path d="M2321 5110 c-497 -48 -990 -251 -1376 -565 -114 -92 -294 -274 -384
-387 -229 -287 -417 -675 -495 -1023 -49 -218 -60 -325 -60 -575 0 -250 11
-357 60 -575 79 -353 279 -762 509 -1040 240 -291 525 -516 860 -681 255 -125
484 -196 775 -241 161 -24 539 -24 700 0 476 74 909 262 1265 552 283 230 517
525 681 860 125 255 196 484 241 775 24 161 24 539 0 700 -45 291 -116 520
-241 775 -134 272 -283 480 -498 692 -211 209 -404 346 -673 478 -252 124
-486 197 -765 240 -126 19 -468 27 -599 15z m1766 -1032 c-29 -73 -962 -2066
-970 -2075 -14 -13 -2079 -975 -2084 -970 -7 7 959 2073 975 2086 17 14 2059
969 2076 970 4 1 6 -5 3 -11z"/>
<path d="M2460 2823 c-61 -22 -142 -104 -163 -167 -63 -184 72 -376 263 -376
75 0 139 27 196 84 113 114 113 278 0 392 -80 80 -189 104 -296 67z"/>
</g>
</svg>
  <svg id="challenges" version="1.0" xmlns="http://www.w3.org/2000/svg"
  viewBox="0 0 512.000000 512.000000"
 preserveAspectRatio="xMidYMid meet">

<g transform="translate(0.000000,512.000000) scale(0.100000,-0.100000)"
fill="#000000" stroke="none">
<path d="M2488 5099 c-23 -12 -46 -35 -58 -59 -20 -38 -20 -57 -20 -946 l0
-907 -287 -538 -288 -539 -17 33 c-265 498 -273 511 -313 534 -51 29 -99 29
-150 0 -37 -21 -68 -77 -613 -1097 -751 -1408 -742 -1391 -742 -1429 0 -51 35
-108 80 -131 39 -20 53 -20 2480 -20 2427 0 2441 0 2480 20 45 23 80 80 80
131 0 38 9 21 -742 1429 -545 1020 -576 1076 -613 1097 -51 29 -99 29 -150 0
-40 -23 -48 -36 -313 -534 l-17 -33 -288 539 -287 538 0 427 0 426 440 0 c422
0 442 1 480 20 46 23 80 81 80 134 0 23 -29 93 -90 215 l-90 181 90 174 c59
112 90 184 90 205 0 51 -35 108 -80 131 -38 19 -57 20 -572 20 -511 -1 -535
-2 -570 -21z m772 -379 c-30 -60 -50 -113 -50 -133 0 -20 20 -75 50 -136 28
-56 50 -104 50 -107 0 -2 -135 -4 -300 -4 l-300 0 0 240 0 240 300 0 300 0
-50 -100z m-578 -2117 c64 -120 141 -265 172 -323 l55 -105 -165 -75 c-91 -41
-171 -76 -178 -78 -7 -2 -90 32 -184 76 l-171 78 171 322 c95 177 175 322 178
322 3 0 58 -98 122 -217z m-1133 -595 c100 -188 113 -215 103 -238 -5 -14
-183 -349 -395 -745 l-384 -720 -238 -3 -237 -2 24 42 c13 24 244 456 513 961
269 504 492 917 495 917 3 0 57 -95 119 -212z m2636 -705 c269 -505 500 -937
513 -961 l24 -42 -237 2 -238 3 -384 720 c-212 396 -390 731 -395 745 -10 23
3 50 103 238 62 117 116 212 119 212 3 0 226 -413 495 -917z m-1834 478 c112
-51 188 -81 210 -81 22 0 114 37 259 104 124 57 228 101 232 97 4 -4 198 -364
432 -801 l423 -795 -673 -3 c-371 -1 -977 -1 -1348 0 l-673 3 416 780 c229
429 422 790 429 802 l12 23 53 -24 c28 -13 131 -60 228 -105z"/>
</g>
</svg>
  <svg id="commu" version="1.0" xmlns="http://www.w3.org/2000/svg" viewBox="0 0 512.000000 512.000000"
 preserveAspectRatio="xMidYMid meet">

<g transform="translate(0.000000,512.000000) scale(0.100000,-0.100000)"
fill="#000000" stroke="none">
<path d="M2411 5100 c-294 -62 -521 -268 -611 -555 -31 -100 -39 -284 -15
-391 56 -257 241 -475 485 -572 132 -52 326 -68 460 -37 369 86 620 400 620
775 0 352 -222 651 -565 760 -79 25 -294 37 -374 20z m292 -206 c110 -28 186
-72 272 -159 121 -121 175 -249 175 -417 0 -168 -52 -292 -174 -414 -123 -122
-246 -174 -416 -174 -169 0 -292 51 -416 175 -122 121 -174 244 -174 415 0
169 52 293 175 415 85 86 151 125 258 156 79 22 220 24 300 3z"/>
<path d="M1057 4278 c-260 -22 -501 -188 -622 -428 -65 -130 -80 -198 -79
-365 0 -135 3 -158 27 -230 15 -44 45 -113 68 -154 42 -75 162 -210 224 -252
19 -13 35 -27 35 -30 0 -3 -28 -19 -62 -35 -103 -48 -204 -120 -298 -210 -165
-160 -271 -347 -326 -582 -12 -51 -17 -142 -21 -375 l-5 -307 35 -35 35 -35
706 0 c758 0 749 -1 776 49 20 39 12 91 -19 122 l-29 29 -652 0 -652 0 5 232
c3 168 9 251 21 296 80 311 283 547 572 663 111 44 205 62 339 63 163 0 259
-21 425 -95 97 -43 127 -43 165 3 30 36 33 85 6 120 -11 13 -51 39 -90 58 -39
19 -71 37 -70 40 0 3 27 25 60 50 128 97 237 267 280 440 18 72 21 103 16 215
-6 145 -21 207 -81 327 -100 200 -294 354 -511 407 -99 24 -165 29 -278 19z
m218 -210 c122 -26 259 -114 334 -215 83 -111 121 -224 121 -363 0 -165 -53
-292 -170 -411 -235 -239 -599 -241 -835 -4 -127 127 -181 268 -172 450 6 116
30 196 86 282 139 215 383 315 636 261z"/>
<path d="M3900 4279 c-277 -22 -541 -216 -652 -480 -58 -138 -75 -334 -42
-482 36 -162 157 -354 283 -447 33 -25 60 -47 61 -50 0 -3 -32 -21 -71 -40
-39 -19 -79 -45 -90 -58 -27 -35 -24 -84 6 -120 38 -46 68 -46 165 -2 219 98
405 120 623 74 289 -60 561 -291 667 -564 56 -146 62 -187 67 -438 l5 -232
-652 0 -652 0 -29 -29 c-31 -31 -39 -83 -19 -122 27 -50 18 -49 776 -49 l706
0 35 35 35 35 -5 307 c-4 233 -9 324 -21 375 -52 220 -144 393 -295 550 -95
101 -182 166 -298 226 -51 26 -93 50 -93 54 0 3 15 16 34 27 58 36 182 175
225 252 23 41 53 110 68 154 24 72 27 95 27 230 1 130 -2 160 -22 225 -87 278
-297 481 -569 549 -95 24 -161 28 -273 20z m215 -211 c139 -29 297 -146 375
-277 173 -294 56 -683 -250 -829 -99 -47 -163 -62 -263 -62 -161 0 -297 59
-417 180 -127 126 -175 253 -168 439 7 161 57 277 168 390 144 146 345 203
555 159z"/>
<path d="M2395 3034 c-283 -63 -506 -268 -595 -549 -31 -99 -39 -284 -16 -389
43 -191 145 -354 293 -466 l63 -48 -54 -22 c-30 -12 -94 -47 -143 -79 -272
-176 -454 -454 -508 -777 -13 -79 -16 -155 -13 -372 l3 -274 28 -24 28 -24
1079 0 1079 0 28 24 28 24 3 274 c3 218 0 293 -13 372 -42 251 -162 477 -346
651 -80 75 -224 173 -305 206 l-52 22 59 44 c145 109 253 281 294 467 25 114
17 292 -19 401 -43 133 -97 219 -205 325 -82 82 -110 103 -191 142 -52 26
-122 54 -155 63 -87 24 -283 28 -370 9z m287 -195 c29 -6 91 -29 138 -51 152
-73 271 -220 315 -388 23 -88 16 -250 -15 -337 -63 -181 -224 -330 -406 -377
-79 -20 -232 -21 -308 -1 -182 47 -343 197 -406 378 -30 85 -38 249 -16 334
54 212 230 388 438 439 67 16 191 17 260 3z m127 -1408 c332 -97 572 -343 663
-679 18 -65 22 -114 26 -310 l4 -232 -941 0 -941 0 0 203 c0 227 14 322 69
462 107 278 373 502 676 569 104 23 344 16 444 -13z"/>
</g>
</svg>
  <svg version="1.1" id="share" xmlns="http://www.w3.org/2000/svg" xmlns:xlink="http://www.w3.org/1999/xlink" x="0px" y="0px"
	 viewBox="0 0 502.749 502.749" style="enable-background:new 0 0 502.749 502.749;" xml:space="preserve">
<g>
	<g>
		<path d="M394.4,148.299c1.417,0,2.833,0.283,4.25,0.283l0,0c39.1,0,71.683-30.883,73.95-69.983
			c2.267-40.8-28.9-75.933-69.7-78.483c-41.083-2.267-75.933,29.183-78.2,69.7c-0.567,9.917,0.85,19.267,3.683,28.05L152.15,202.982
			c-13.033-11.05-29.75-17.85-48.167-17.85c-40.8,0-73.95,33.15-73.95,73.95s33.15,73.95,73.95,73.95
			c17.283,0,33.433-5.95,45.9-16.15l171.983,93.5c-4.533,17.567-2.267,35.983,6.233,52.133c12.75,24.65,37.967,40.233,65.733,40.233
			l0,0c11.9,0,23.517-3.117,34-8.783c36.267-18.7,50.433-64.033,31.733-100.017c-12.75-24.65-37.967-39.95-65.733-39.95
			c-11.9,0-23.517,2.833-34,8.5c-8.5,4.533-16.15,10.483-22.1,17.567l-166.317-90.383c4.25-9.35,6.8-19.833,6.8-30.883
			c0-10.2-1.983-19.833-5.667-28.617l174.25-103.417C358.983,139.232,375.699,147.449,394.4,148.299z M358.699,72.082
			c1.133-21.25,18.7-37.683,39.95-37.683c0.85,0,1.7,0,2.267,0c22.1,1.417,38.817,20.117,37.683,42.217
			c-1.133,21.817-20.117,38.817-42.217,37.683C374.283,112.882,357.283,93.899,358.699,72.082z M64.033,259.082
			c0-22.1,17.85-39.95,39.95-39.95s39.95,17.85,39.95,39.95s-17.85,39.95-39.95,39.95S64.033,281.182,64.033,259.082z
			 M375.416,392.815c5.667-3.117,11.9-4.533,18.417-4.533c15.017,0,28.617,8.217,35.7,21.533c10.2,19.55,2.55,43.917-17,53.833
			c-5.667,3.117-11.9,4.533-18.417,4.533l0,0c-15.017,0-28.617-8.217-35.7-21.533c-4.817-9.35-5.95-20.4-2.55-30.6
			C358.699,406.132,365.783,397.632,375.416,392.815z"/>
	</g>
</g>
<g>
</g>
<g>
</g>
<g>
</g>
<g>
</g>
<g>
</g>
<g>
</g>
<g>
</g>
<g>
</g>
<g>
</g>
<g>
</g>
<g>
</g>
<g>
</g>
<g>
</g>
<g>
</g>
<g>
</g>
</svg>
<svg id="check" xmlns="http://www.w3.org/2000/svg" viewBox="0 0 28 28">
  <rect id="_3._Icons_Icons_simple_icon_aprv_white_background" data-name="3. Icons / Icons simple / icon_aprv_white background" width="28" height="28" fill="none"/>
  <g id="_3._Icons_Icons_simple_icon_aprv_white" data-name="3. Icons / Icons simple / icon_aprv_white">
    <rect id="Rectangle_16" data-name="Rectangle 16" width="28" height="28" opacity="0"/>
    <path id="Combined_Shape" data-name="Combined Shape" d="M5.364,12.677l-.05.05L0,7.414,1.414,6l3.95,3.95L15.314,0l1.415,1.414L5.414,12.728Z" transform="translate(5.636 7.636)"/>
  </g>
</svg>
<svg id="notCheck" xmlns="http://www.w3.org/2000/svg" viewBox="0 0 28 28">
  <rect id="_3._Icons_Icons_simple_icon_diss_white_background" data-name="3. Icons / Icons simple / icon_diss_white background" width="28" height="28" fill="none"/>
  <g id="_3._Icons_Icons_simple_icon_diss_white" data-name="3. Icons / Icons simple / icon_diss_white">
    <rect id="Rectangle_16" data-name="Rectangle 16" width="28" height="28" opacity="0"/>
    <g id="Group" transform="translate(14 2.686) rotate(45)">
      <path id="Combined_Shape" data-name="Combined Shape" d="M7,16V9H0V7H7V0H9V7h7V9H9v7Z" transform="translate(0 0)" />
    </g>
  </g>
</svg>
  <svg id="folder" xmlns="http://www.w3.org/2000/svg" x="0px" y="0px" viewBox="0 0 110 84.3">
    <g>
      <path fill-rule="evenodd" d="M93.1,16.5c0-2.1-2.6-3.8-5.7-3.8H48.9c-3.1,0-5.7-1.9-5.7-4.3s-2.6-4.3-5.7-4.3H22.6c-3.1,0-5.7,1.9-5.7,4.3s0,6,0,7.9
        c0,2,0,3.6,0,3.6l76.2,0.4C93.1,20.3,93.1,18.6,93.1,16.5z"/>
      <path fill-rule="evenodd" d="M100.5,25h-91c-3.1,0-5.1,2.5-4.4,5.5l10.4,42.7c0.7,3.1,3.9,5.5,7.1,5.5h64.8c3.1,0,6.3-2.5,7.1-5.5l10.4-42.7
        C105.6,27.5,103.6,25,100.5,25z"/>
    </g>
  </svg>
  <svg id="comment" xmlns="http://www.w3.org/2000/svg" x="0px" y="0px" viewBox="0 0 446.6 425.7">
    <path fill-rule="evenodd" d="M256.5,0c105.3,0,190.4,85.1,190.4,190.4s-85.1,190.4-190.4,190.4H78.4C35.8,380.8,0,444.6,0,420V190.4
      C0,85.1,85.1,0,190.4,0H256.5L256.5,0z"/>
  </svg>
</svg>