<?xml version="1.0" encoding="UTF-8"?>
<svg id="Calque_2" data-name="Calque 2" xmlns="http://www.w3.org/2000/svg" viewBox="0 0 106 106">
  <g id="Calque_1-2" data-name="Calque 1">
    <path d="m0,0v106h106V0H0Zm33.53,76.13c0,4.02-3.26,7.28-7.28,7.28h0c-4.02,0-7.28-3.26-7.28-7.28v-19h14.57v19Zm-4.41-21.38c-14.6,4.55-18.63-19.78-3.35-20.11,3.42.15,7.41-.29,10.56.15-.07,7.2,1.66,17.35-7.21,19.95Zm15.74,4.41l-6.21-20.3c-.58-1.9.15-4.26,1.33-4.26h9.88c.55,0,1.05.55,1.33,1.44l6.21,20.3c.58,1.9-.15,4.26-1.33,4.26h-9.88c-.55,0-1.05-.55-1.33-1.44Zm14.63,12.43c-1.09,4.06-6.24,5.49-9.09,2.4-.08-.09-.16-.18-.24-.27-1.95-2.36-2.76-4.06-3.08-5.01-.18-.52-.4-1.04-.7-1.5-1.33-2.09.81-2.43.81-2.43,0,0,13.26-4.43,12.77,1.19.24,2.08-.06,4.05-.48,5.62Zm11.26-33.68l-2.28.98c-6.12,1.28-6.56,11.41-6.54,14.77,0,1.34-1.75,2.07-2.55.99-.19-.26-.19-.54-.31-.97l-5.22-16.98c0-.91.75-1.65,1.66-1.64l14.01.15c1.39.02,2.14,1.65,1.23,2.71Zm16.04,43.05c0,1.36-1.1,2.45-2.45,2.45h-9.06c-1.36,0-2.45-1.1-2.45-2.45v-43.46c0-1.36,1.1-2.45,2.45-2.45h9.06c1.36,0,2.45,1.1,2.45,2.45v43.46Z" fill="#ffde79"/>
  </g>
</svg>