<?xml version="1.0" encoding="UTF-8"?>
<svg width="60" height="60" viewBox="0 0 60 60" fill="none" xmlns="http://www.w3.org/2000/svg">
<rect width="60" height="60" fill="#FFDE79"/>
<path d="M42.8696 44.6517V15.3483C42.8696 14.5843 43.4931 14 44.2057 14H50.6638C51.421 14 52 14.6292 52 15.3483V44.6517C52 45.4157 51.3765 46 50.6638 46H44.2503C43.4931 46 42.8696 45.4157 42.8696 44.6517Z" fill="#171717"/>
<path d="M39.7383 16.591L41.3059 15.9546C41.9052 15.2273 41.3981 14.1364 40.476 14.1364L30.9326 14C30.3332 14 29.8261 14.5 29.8261 15.091L33.3761 26.4551C33.4683 26.7278 33.4683 26.9097 33.6066 27.0915C34.1598 27.8188 35.3585 27.3188 35.3585 26.4096C35.3124 24.2277 35.589 17.4092 39.7383 16.591Z" fill="#171717"/>
<path d="M7.65216 26.16V41.1532C7.65216 43.8258 9.84639 46 12.5435 46C15.2405 46 17.4348 43.8258 17.4348 41.1532V26.16H7.65216Z" fill="#171717"/>
<path d="M34.3234 34.4415C34.5124 35.8376 34.2761 37.1437 33.9926 38.1795C33.2365 40.8817 29.645 41.8275 27.6603 39.7558C27.613 39.7108 27.5658 39.6207 27.5185 39.5756C26.1481 37.9994 25.581 36.8735 25.392 36.2429C25.2502 35.8827 25.1085 35.5674 24.9195 35.2521C23.9743 33.856 25.4865 33.6308 25.4865 33.6308C25.4865 33.6308 34.6542 30.7485 34.3234 34.4415Z" fill="#171717"/>
<path d="M31.363 31.28H24.666C24.2965 31.28 23.927 30.9191 23.7423 30.3325L19.5393 16.8424C19.1236 15.5791 19.6317 14 20.463 14H27.2063C27.5757 14 27.9452 14.3609 28.13 14.9475L32.2868 28.4376C32.7024 29.7009 32.1944 31.28 31.363 31.28Z" fill="#171717"/>
<path d="M12.5435 25.52C9.4588 25.52 7 23 7 19.94V19.58C7 16.475 9.4588 14 12.5435 14H18.087V19.94C18.0423 23 15.5835 25.52 12.5435 25.52Z" fill="#171717"/>
</svg>
