<svg xmlns="http://www.w3.org/2000/svg" viewBox="0 0 276.36 276.36"><defs><style>.cls-1{fill:#ffdb78;}.cls-2{fill:#2d2d2e;}</style></defs><g id="Calque_2" data-name="Calque 2"><g id="logo_favicon"><circle class="cls-1" cx="138.18" cy="138.18" r="138.18"/><path class="cls-2" d="M177,206.15q-13.06,7.57-25.6,8.5a41.22,41.22,0,0,1-23.2-4.86q-10.66-5.78-17.85-18.2a41.34,41.34,0,0,1-5.88-17.69,35.78,35.78,0,0,1,2.49-16.35,44.73,44.73,0,0,1,8.86-13.85l-1.71-2.94a41.43,41.43,0,0,1-23.61-1q-11.26-3.88-18.69-16.74t-6.88-25a41.57,41.57,0,0,1,7.74-22.34q7.17-10.19,19.81-17.51l23-13.29,12.68,21.91L110,77.32q-9.48,5.49-12.77,14.14T99.64,110q4,7,9.64,9.61a21,21,0,0,0,11.78,1.9,31.72,31.72,0,0,0,12.07-4.18l20.43-11.82-11-19,26.54-15.37,11,19,19.38-11.22,12.68,21.91-19.38,11.22,36.83,63.61Zm-7.84-24.71,21.27-12.31-24.14-41.71L145,139.74q-9.27,5.37-12.54,14.29t2.7,19.24q6.1,10.54,15.72,11.85A27.84,27.84,0,0,0,169.11,181.44Z"/></g></g></svg>