<?xml version="1.0" encoding="UTF-8"?>
<svg id="b" data-name="Calque 2" xmlns="http://www.w3.org/2000/svg" viewBox="0 0 854.4 666.41">
  <g id="c" data-name="Calque 1">
    <g id="d" data-name="Logo_mode nuit">
      <circle cx="441.6" cy="343.3" r="257" fill="#ffde78"/>
      <circle cx="194.6" cy="345.7" r="164.5" fill="#abb4f5"/>
      <g>
        <path d="m57.7,302.9L0,61.9l84.3-20.2,91.9,200,6.2-1.5-8.6-220L258.1,0l57.7,241-44.1,10.5-49.7-207.6-6.2,1.5,8.4,217.5-75,18L58.2,83.2l-6.2,1.5,49.7,207.6-44,10.6Z" fill="#fff"/>
        <path d="m381.5,209.2c-12.3-2-23-6-32.1-11.9s-15.8-13.5-20.1-22.7-5.5-19.7-3.6-31.6,6.4-21.4,13.5-28.5c7-7.1,15.9-11.8,26.7-14.2,10.8-2.4,22.7-2.5,35.8-.4l47.5,7.8,1.6-9.8c1.3-8.1-.1-15.3-4.4-21.3-4.3-6.1-12-10-23.2-11.9-10.9-1.8-19.5-.6-25.7,3.5s-10.7,10-13.7,17.7l-38.3-20.3c4.3-8.4,10.1-15.7,17.4-22.1,7.4-6.3,16.6-10.9,27.7-13.7,11.1-2.8,24.1-3,39-.6,22.8,3.8,39.9,12.4,51.3,26,11.4,13.6,15.3,31.2,11.7,52.9l-10.6,64.6c-1.2,7,1.5,11,8.1,12.1l14,2.3-6,36.3-29.3-4.8c-8.6-1.4-15.4-4.7-20.3-9.8-4.9-5.1-6.8-11.2-5.6-18.1l.1-.3-6.6-1.1c-1.4,2.6-4.1,6-8.1,10s-9.8,7.2-17.4,9.5c-7.4,2.2-17.3,2.4-29.4.4Zm13.6-34.4c12.3,2,23,.3,31.9-5.3,8.9-5.6,14.3-14.1,16.2-25.5l.6-3.5-44.4-7.3c-8.2-1.3-14.8-.7-20.1,2.1-5.2,2.7-8.4,7.2-9.4,13.5s.6,11.8,4.8,16.6c4.3,4.8,11.1,7.9,20.4,9.4Z" fill="#fff"/>
        <path d="m640.5,272.7c-16.7,3.3-32.5,2.8-47.4-1.5s-27.6-12.2-38.1-23.9c-10.5-11.6-17.6-26.8-21.3-45.6l-1-4.9c-3.7-18.8-2.9-35.5,2.4-50.3,5.3-14.7,14-26.9,26.2-36.5s26.6-16.1,43.3-19.4c16.4-3.2,31.1-3.1,44.1.3,12.9,3.5,24.1,9.5,33.3,18.1,9.3,8.6,16.3,19.1,21.2,31.4l-40.6,17.4c-2.3-6.8-5.6-12.6-10-17.5-4.3-4.9-9.8-8.4-16.3-10.5s-14.2-2.2-23-.5-16.4,5.2-22.7,10.4c-6.3,5.2-10.7,12-13.3,20.3s-2.8,17.9-.6,28.8l.7,3.5c2.1,10.9,6,19.7,11.5,26.4,5.5,6.7,12.2,11.3,20,13.7,7.8,2.4,16.1,2.8,24.9,1,13.2-2.6,22.5-8,28-16.2s8-18,7.7-29.5l44.4,1.7c-.6,12.9-3.5,25.1-8.8,36.6s-13.3,21.3-24,29.4-24.2,14.1-40.6,17.3Z" fill="#fff"/>
        <path d="m493.1,427.7c-9.8,5.7-19.4,8.9-28.8,9.6-9.4.7-18.1-1.1-26.1-5.5-8-4.3-14.7-11.2-20.1-20.5-3.9-6.8-6.1-13.4-6.6-19.9s.5-12.6,2.8-18.4c2.3-5.8,5.7-11,10-15.6l-1.9-3.3c-9.3,2.2-18.2,1.9-26.6-1.1-8.5-2.9-15.5-9.2-21.1-18.9s-8.2-19-7.7-28.2c.4-9.1,3.3-17.5,8.7-25.2s12.8-14.2,22.3-19.7l25.9-15,14.3,24.7-20.4,11.8c-7.1,4.1-11.9,9.4-14.4,15.9s-1.6,13.5,2.8,20.9c3,5.2,6.6,8.8,10.9,10.8,4.2,2,8.6,2.7,13.3,2.1,4.6-.6,9.2-2.1,13.6-4.7l23-13.3-12.4-21.4,29.9-17.3,12.4,21.4,21.8-12.6,14.3,24.7-21.8,12.6,41.5,71.7-59.6,34.4Zm-8.8-27.9l24-13.9-27.2-47-24,13.9c-7,4-11.7,9.4-14.1,16.1-2.5,6.7-1.4,13.9,3,21.7,4.6,7.9,10.5,12.4,17.7,13.4,7.2,1,14.1-.4,20.6-4.2Z" fill="#fff"/>
        <path d="m116.6,617.4l58.7-240.7,45.4,11.1-23.3,95.6,6.2,1.5,101.4-76.6,58.1,14.2-129.3,94.2,74.1,147.4-59.8-14.6-56-117.1-6.2-1.5-23.8,97.7-45.5-11.2Z" fill="#fff"/>
        <path d="m406,665.5c-12.4,1.7-23.8,1-34.2-2s-19-8.3-25.9-15.8-11.1-17.2-12.7-29.2c-1.6-11.9-.1-22.3,4.5-31.2,4.6-8.8,11.8-16,21.4-21.5,9.6-5.5,21-9.1,34.1-10.9l47.7-6.5-1.3-9.8c-1.1-8.2-4.6-14.6-10.4-19.1-5.9-4.6-14.4-6.1-25.6-4.6-11,1.5-18.8,5.1-23.5,10.9-4.7,5.8-7.3,12.7-7.9,20.9l-42.5-8.2c1.6-9.3,5-18,10.2-26.2s12.7-15.3,22.5-21.3,22.2-10,37.1-12c22.9-3.1,41.8.2,56.7,9.8,14.9,9.7,23.8,25.4,26.7,47.1l8.8,64.9c.9,7,4.7,10.1,11.2,9.2l14-1.9,4.9,36.5-29.5,4c-8.7,1.2-16.1,0-22.2-3.4-6.2-3.5-9.7-8.7-10.7-15.7v-.4l-6.7.9c-.6,2.9-2.2,6.9-4.8,11.9-2.7,5-7.3,9.7-13.8,14.2-6.5,4.7-15.9,7.7-28.1,9.4Zm2.9-36.9c12.4-1.7,22-6.5,28.9-14.5s9.6-17.7,8-29.1l-.5-3.5-44.5,6c-8.2,1.1-14.4,3.7-18.6,7.9-4.2,4.1-5.9,9.4-5,15.7s4,11.1,9.5,14.4c5.5,3.4,12.9,4.4,22.2,3.1Z" fill="#fff"/>
        <path d="m580,658.7c-11.4-1.8-20.1-6.8-26.1-15s-8.1-18.3-6.2-30.2l15.3-97.9-43.4-6.8,5.7-36.4,43.4,6.8,8.4-53.9,44.1,6.9-8.4,53.9,47.6,7.4-5.7,36.4-47.6-7.4-14.1,90.2c-1.1,7,1.6,11,8.2,12l33.6,5.2-5.7,36.4-49.1-7.6Z" fill="#fff"/>
        <path d="m790.9,604.2c-16.8,4.7-32.6,5.4-47.5,1.8-14.9-3.5-27.7-10.8-38.5-21.8s-18.8-25.4-23.8-43.1l-1.2-4.1c-5-17.7-5.8-34.1-2.5-49.1s10.4-27.9,21.1-38.7c10.7-10.7,24.4-18.5,41.3-23.2,16.6-4.7,32-5.1,46.4-1.1,14.3,3.9,26.8,11.4,37.3,22.6,10.5,11.1,18.2,25.3,23.1,42.6l4.1,14.6-123,34.7c3.7,11.5,10.7,19.7,20.9,24.6,10.2,5,21.2,5.8,33.1,2.4,12-3.4,20.2-8.5,24.4-15.3,4.2-6.8,6.9-13.8,8-21l40.3,8.5c-1.5,6.8-4.3,14.5-8.4,23.1s-10.4,16.8-19,24.5c-8.7,7.6-20.7,13.6-36.1,18Zm-71.9-97l79-22.3c-3.7-9.5-9.8-16.2-18.4-20.2-8.6-3.9-18.5-4.3-29.6-1.2-11.6,3.3-19.9,8.8-25.1,16.6-5.1,7.9-7.1,16.9-5.9,27.1Z" fill="#fff"/>
      </g>
    </g>
  </g>
</svg>