<svg width="0" height="0" class="hidden">
  <svg version="1.1" id="burger" xmlns="http://www.w3.org/2000/svg" xmlns:xlink="http://www.w3.org/1999/xlink" x="0px" y="0px" xml:space="preserve" viewBox="0 0 700 564">
    <path d="M226.1,81.7h429c20.3,0,36.8-16.8,36.8-37.4c0-20.7-16.5-37.4-36.8-37.4H226c-20.3,0-36.8,16.8-36.8,37.4
	C189.3,65,205.7,81.7,226.1,81.7L226.1,81.7z M42.3,318.8H655c20.3,0,36.8-16.8,36.8-37.4c0-20.7-16.5-37.4-36.8-37.4H42.3
	c-20.3,0-36.8,16.8-36.8,37.4C5.5,302,22,318.8,42.3,318.8z M226.1,555.9h429c20.3,0,36.8-16.8,36.8-37.4S675.3,481,655,481H226
	c-20.3,0-36.8,16.8-36.8,37.4S205.7,555.9,226.1,555.9L226.1,555.9z"></path>
  </svg>

  <svg version="1.1" id="arrow" xmlns="http://www.w3.org/2000/svg" xmlns:xlink="http://www.w3.org/1999/xlink" x="0px" y="0px" fill="none" xml:space="preserve" viewBox="0 0 45 33">
    <path d="M22.0065 9.35696H22.5065V8.85696V0.974213L44.1424 16.5L22.5065 32.0258V24.143V23.643H22.0065H15.5V9.35696H22.0065Z" fill="#FFDE79" stroke="#171717"/>
    <path d="M7.5 9.5H11.5V23.5H7.5V9.5Z" fill="#FFDE79" stroke="#171717"/>
    <path d="M0.5 9.5H2.5V23.5H0.5V9.5Z" fill="#FFDE79" stroke="#171717"/>
  </svg>

  <svg version="1.1" id="feedback" xmlns="http://www.w3.org/2000/svg" xmlns:xlink="http://www.w3.org/1999/xlink" x="0px" y="0px" xml:space="preserve" viewBox="0 0 570 568">
    <g>
      <path d="M226.7,291.7c-18.6,0-36.4-7.4-49.5-20.5c-13.1-13.1-20.5-30.9-20.5-49.5H63.3c-12.4,0-24.2,4.9-33,13.7
		c-8.8,8.8-13.7,20.6-13.7,33v163.3c0,12.4,4.9,24.2,13.7,33c8.8,8.8,20.6,13.7,33,13.7H75v70l86.4-63.1c9.6-9.6,5.3-6.9,181.9-6.9
		c12.4,0,24.2-4.9,33-13.7c8.8-8.8,13.7-20.6,13.7-33v-140L226.7,291.7z M98.3,373.3c-6.2,0-12.1-2.5-16.5-6.8
		c-4.4-4.4-6.8-10.3-6.8-16.5s2.5-12.1,6.8-16.5c4.4-4.4,10.3-6.8,16.5-6.8c6.2,0,12.1,2.5,16.5,6.8s6.8,10.3,6.8,16.5
		s-2.5,12.1-6.8,16.5S104.5,373.3,98.3,373.3z M203.3,373.3c-6.2,0-12.1-2.5-16.5-6.8c-4.4-4.4-6.8-10.3-6.8-16.5s2.5-12.1,6.8-16.5
		c4.4-4.4,10.3-6.8,16.5-6.8c6.2,0,12.1,2.5,16.5,6.8s6.8,10.3,6.8,16.5s-2.5,12.1-6.8,16.5S209.5,373.3,203.3,373.3z M308.3,373.3
		c-6.2,0-12.1-2.5-16.5-6.8c-4.4-4.4-6.8-10.3-6.8-16.5s2.5-12.1,6.8-16.5c4.4-4.4,10.3-6.8,16.5-6.8c6.2,0,12.1,2.5,16.5,6.8
		s6.8,10.3,6.8,16.5s-2.5,12.1-6.8,16.5S314.5,373.3,308.3,373.3z"></path>
      <path d="M506.7,11.7h-280c-12.4,0-24.2,4.9-33,13.7c-8.8,8.7-13.7,20.6-13.7,33v163.3c0,12.4,4.9,24.2,13.7,33
		c8.8,8.8,20.6,13.7,33,13.7c176.5,0,172.3-2.7,181.9,6.9l86.4,63.1v-70h11.7c12.4,0,24.2-4.9,33-13.7c8.8-8.8,13.7-20.6,13.7-33
		V58.3c0-12.4-4.9-24.2-13.7-33C530.9,16.6,519,11.7,506.7,11.7L506.7,11.7z M366.7,202.9c-61.6-61.6-58.3-58.3-59.3-59.5h0
		c-7.3-8.1-11.2-18.7-10.8-29.6c0.4-10.9,5-21.2,12.8-28.8s18.3-11.7,29.2-11.7c10.3,0.2,20.3,4.1,28,11
		c8.1-7.3,18.7-11.2,29.6-10.8c10.9,0.4,21.2,5,28.8,12.8c7.5,7.9,11.7,18.3,11.7,29.2C436.7,140,420.9,148.6,366.7,202.9
		L366.7,202.9z"></path>
    </g>
  </svg>
  <svg version="1.1" id="submit" xmlns="http://www.w3.org/2000/svg" xmlns:xlink="http://www.w3.org/1999/xlink" x="0px" y="0px" xml:space="preserve" viewBox="0 0 603 600">
    <path d="M20,456.5C20,524.2,74.8,579,142.5,579h315c67.7,0,122.5-54.8,122.5-122.5v-315C580,73.8,525.2,19,457.5,19
	h-315C74.8,19,20,73.8,20,141.5V456.5z M317.5,421.5c0,9.7-7.8,17.5-17.5,17.5s-17.5-7.8-17.5-17.5V214.1l-93.7,79
	c-7.4,6.2-18.4,5.3-24.7-2.1c-6.2-7.4-5.3-18.4,2.1-24.7l122.5-103.3c6.5-5.5,16-5.5,22.6,0l122.5,103.3c7.4,6.2,8.3,17.3,2.1,24.7
	c-6.2,7.4-17.3,8.3-24.7,2.1l-93.7-79L317.5,421.5z"></path>
  </svg>
  <svg version="1.1" id="coding" xmlns="http://www.w3.org/2000/svg" xmlns:xlink="http://www.w3.org/1999/xlink" x="0px" y="0px" xml:space="preserve" viewBox="0 0 521 485">
    <g>
      <path d="M491.8,406.9l-43.1-125.6c0.5-1.4,0.8-2.8,0.8-4.3l-2.9-208.6c0-19.9-15.8-36.3-35-36.3H108.3c-19.3,0-35,16.2-35,36.3V275
		L28.2,406.7v0.5c-3.3,10.5-1.3,21.6,5.4,30.3c6.8,9.1,17.4,14.4,28.9,14.4l395,0c11.6,0,22.2-5.3,28.9-14.4
		c6.5-8.8,8.6-19.8,5.4-30.8L491.8,406.9z M96.7,68.3c0-7.1,5.3-12.9,11.7-12.9h303.3c6.4,0,11.7,5.8,11.7,13.1l2.7,196.9l-329.4,0
		L96.7,68.3z M301.1,405.3H225c-6.4,0-11.7-5.3-11.7-11.7S218.6,382,225,382h76.1c6.4,0,11.7,5.3,11.7,11.7S307.5,405.3,301.1,405.3
		z"></path>
      <path d="M285,91c-6.1-2.2-12.7,0.9-14.9,7l-42,116.7c-2.2,6.1,0.9,12.7,7,14.9c1.3,0.5,2.7,0.7,4,0.7c4.8,0,9.2-2.9,11-7.7L292,106
		C294.2,99.9,291,93.3,285,91L285,91z"></path>
      <path d="M217,114.5c-3.9-5.3-11.2-6.3-16.3-2.4l-52.5,38.9c-2.9,2.2-4.7,5.7-4.7,9.3s1.8,7.2,4.7,9.3l52.5,38.9
		c2.1,1.5,4.6,2.3,6.9,2.3c3.6,0,7.1-1.6,9.3-4.8c3.9-5.1,2.8-12.5-2.4-16.3l-39.9-29.5l39.9-29.5c5.1-3.9,6.3-11.2,2.4-16.3
		L217,114.5z"></path>
      <path d="M319.5,112c-5.1-3.9-12.5-2.8-16.3,2.4c-3.9,5.1-2.8,12.5,2.4,16.3l39.9,29.5l-39.9,29.5c-5.1,3.9-6.3,11.2-2.4,16.3
		c2.3,3.1,5.8,4.8,9.3,4.8c2.4,0,4.9-0.7,6.9-2.3l52.5-38.9c2.9-2.2,4.8-5.7,4.8-9.3s-1.8-7.2-4.8-9.3l-52.5-38.9L319.5,112z"></path>
    </g>
  </svg>
  <svg version="1.1" id="challenge" xmlns="http://www.w3.org/2000/svg" xmlns:xlink="http://www.w3.org/1999/xlink" x="0px" y="0px" xml:space="preserve" viewBox="0 0 504 509">
    <g>
      <path d="M161.7,476.9H256V308.7h-94.3L161.7,476.9z"></path>
      <path d="M289.6,476.9h94.3V236.6h-94.3L289.6,476.9z"></path>
      <path d="M33.7,476.9H128v-96.1H33.7V476.9z"></path>
      <path d="M319.9,35.1h33.6v172.7h-33.6V35.1z"></path>
      <path d="M463.6,116.8H336.7V35.1h126.9l-36,40.9L463.6,116.8z"></path>
    </g>
  </svg>
  <svg version="1.1" id="waves" xmlns="http://www.w3.org/2000/svg" xmlns:xlink="http://www.w3.org/1999/xlink" x="0px" y="0px" xml:space="preserve" viewBox="0 0 571 368" preserveAspectRatio="none">
    <g>
      <path d="M47.4,131.7c27.7,0,41-21.4,51.7-38.6c9.7-15.6,16.2-25.2,27.5-25.2c11.3,0,17.8,9.6,27.5,25.2
		c10.7,17.2,24,38.6,51.7,38.6c27.7,0,41-21.4,51.6-38.6c9.7-15.6,16.2-25.2,27.6-25.2s17.9,9.6,27.6,25.2
		c10.7,17.2,24,38.6,51.6,38.6c27.7,0,41-21.4,51.7-38.6c9.7-15.6,16.2-25.2,27.6-25.2c11.3,0,17.8,9.6,27.5,25.2
		c10.7,17.2,24,38.6,51.7,38.6c7.8,0,14.2-6.4,14.2-14.2c0-7.8-6.4-14.2-14.2-14.2c-11.3,0-17.9-9.6-27.6-25.2
		c-10.7-17.2-24-38.6-51.7-38.6c-27.7,0-41,21.4-51.7,38.6c-9.7,15.6-16.2,25.2-27.6,25.2c-11.3,0-17.8-9.6-27.5-25.2
		c-10.7-17.2-24-38.6-51.7-38.6c-27.7,0-41,21.4-51.7,38.6c-9.7,15.6-16.2,25.2-27.5,25.2c-11.3,0-17.9-9.6-27.5-25.2
		c-10.7-17.2-24-38.6-51.6-38.6c-27.7,0-41,21.4-51.6,38.6c-9.7,15.6-16.2,25.2-27.6,25.2c-7.8,0-14.2,6.4-14.2,14.2
		C33.2,125.4,39.5,131.7,47.4,131.7L47.4,131.7z"></path>
      <path d="M522.6,202.7c-11.3,0-17.9-9.6-27.6-25.2c-10.7-17.2-24-38.6-51.7-38.6c-27.7,0-41,21.4-51.7,38.6
		c-9.7,15.6-16.2,25.2-27.6,25.2c-11.3,0-17.8-9.6-27.5-25.2c-10.7-17.2-24-38.6-51.7-38.6s-41,21.4-51.7,38.6
		c-9.7,15.6-16.2,25.2-27.5,25.2c-11.3,0-17.9-9.6-27.5-25.2c-10.7-17.2-24-38.6-51.6-38.6c-27.7,0-41,21.4-51.6,38.6
		c-9.7,15.6-16.2,25.2-27.6,25.2c-7.8,0-14.2,6.4-14.2,14.2c0,7.8,6.4,14.2,14.2,14.2c27.7,0,41-21.4,51.7-38.6
		c9.7-15.6,16.2-25.2,27.5-25.2c11.3,0,17.8,9.6,27.5,25.2c10.7,17.2,24,38.6,51.7,38.6c27.7,0,41-21.4,51.6-38.6
		c9.7-15.6,16.2-25.2,27.6-25.2s17.9,9.6,27.6,25.2c10.7,17.2,24,38.6,51.6,38.6c27.7,0,41-21.4,51.7-38.6
		c9.7-15.6,16.2-25.2,27.6-25.2c11.3,0,17.8,9.6,27.5,25.2c10.7,17.2,24,38.6,51.7,38.6c7.8,0,14.2-6.4,14.2-14.2
		C536.8,209.1,530.5,202.7,522.6,202.7L522.6,202.7z"></path>
      <path d="M522.6,302.1c-11.3,0-17.9-9.6-27.6-25.2c-10.7-17.2-24-38.6-51.7-38.6c-27.7,0-41,21.4-51.7,38.6
		c-9.7,15.6-16.2,25.2-27.6,25.2c-11.3,0-17.8-9.6-27.5-25.2c-10.7-17.2-24-38.6-51.7-38.6s-41,21.4-51.7,38.6
		c-9.7,15.6-16.2,25.2-27.5,25.2c-11.3,0-17.9-9.6-27.5-25.2c-10.7-17.2-24-38.6-51.6-38.6c-27.7,0-41,21.4-51.6,38.6
		c-9.7,15.6-16.2,25.2-27.6,25.2c-7.8,0-14.2,6.3-14.2,14.2c0,7.8,6.4,14.2,14.2,14.2c27.7,0,41-21.4,51.7-38.6
		c9.7-15.6,16.2-25.2,27.5-25.2c11.3,0,17.8,9.6,27.5,25.2c10.7,17.2,24,38.6,51.7,38.6c27.7,0,41-21.4,51.6-38.6
		c9.7-15.6,16.2-25.2,27.6-25.2s17.9,9.6,27.6,25.2c10.7,17.2,24,38.6,51.6,38.6c27.7,0,41-21.4,51.7-38.6
		c9.7-15.6,16.2-25.2,27.6-25.2c11.3,0,17.8,9.6,27.5,25.2c10.7,17.2,24,38.6,51.7,38.6c7.8,0,14.2-6.4,14.2-14.2
		C536.8,308.5,530.5,302.1,522.6,302.1L522.6,302.1z"></path>
    </g>
  </svg>
  <svg version="1.1" id="cross" xmlns="http://www.w3.org/2000/svg" xmlns:xlink="http://www.w3.org/1999/xlink" x="0px" y="0px" xml:space="preserve" viewBox="0 0 365 344">
    <g>
      <path d="M311.7,26.5L181,157.2L50.3,26.5L34.5,42.3L165.2,173L34.5,303.7l15.8,15.8L181,188.8l130.7,130.7l15.8-15.8L196.8,173
		L327.5,42.3L311.7,26.5z"></path>
    </g>
  </svg>
   <svg version="1.1" id="glass" xmlns="http://www.w3.org/2000/svg" xmlns:xlink="http://www.w3.org/1999/xlink" x="0px" y="0px"
	 viewBox="0 0 548 554" style="enable-background:new 0 0 548 554;" xml:space="preserve">
      <path fill-rule="evenodd" clip-rule="evenodd" d="M193.6,415.2c3.4-3.4,3.4-9,0-12.4l-45.8-45.8c-3.4-3.4-9-3.4-12.4,0L27.9,464.5c-11.6,11.6-11.6,30.3,0,41.8
        l16.4,16.4c11.6,11.6,30.3,11.6,41.8,0C118.6,490.2,193.6,415.2,193.6,415.2L193.6,415.2z M155.4,352.3l42.9,42.9l75.1-75.1
        c62.2,42.1,147.6,35.7,202.7-19.4c62.4-62.4,62.4-163.8,0-226.2c-62.4-62.4-163.8-62.4-226.2,0c-55.1,55.1-61.6,140.5-19.4,202.7
        L155.4,352.3L155.4,352.3z M453.5,97.1c-49.9-49.9-131-49.9-181,0c-49.9,49.9-49.9,131,0,181c49.9,49.9,131,49.9,181,0
        C503.5,228.1,503.5,147,453.5,97.1L453.5,97.1z"/>
  </svg>
  <svg version="1.1" id="dropdown" xmlns="http://www.w3.org/2000/svg" xmlns:xlink="http://www.w3.org/1999/xlink" x="0px" y="0px" xml:space="preserve" viewBox="0 0 279 219">
    <path d="M33.3,77.9l92.2,92.2c9.1,9.1,23.9,9.1,33,0l92.2-92.2c14.7-14.7,4.3-39.8-16.5-39.8H49.8C29.1,38.1,18.6,63.2,33.3,77.9z"></path>
  </svg>
  <svg version="1.1" id="worldwide" xmlns="http://www.w3.org/2000/svg" xmlns:xlink="http://www.w3.org/1999/xlink" x="0px" y="0px" xml:space="preserve" viewBox="0 0 500 515">
    <g>
      <path d="M157,126.1h84V32C206,36.4,175.8,72.6,157,126.1z"></path>
      <path d="M152.1,371.4H241V263H136C136.4,299.7,141.8,336.1,152.1,371.4L152.1,371.4z"></path>
      <path d="M343.9,140.6H255V249h105C359.6,212.3,354.2,175.9,343.9,140.6z"></path>
      <path d="M136,249h105V140.6h-88.9C141.8,175.9,136.4,212.3,136,249L136,249z"></path>
      <path d="M255,32v94.1h84C320.2,72.6,290,36.4,255,32z"></path>
      <path d="M122,263H24c1.2,38.2,12.1,75.4,31.8,108.1h81.1C127.3,335.9,122.3,299.5,122,263z"></path>
      <path d="M359.1,371.4h81.6c19.7-32.8,30.7-70.1,31.8-108.4H374C373.8,299.6,368.8,336,359.1,371.4z"></path>
      <path d="M241,480v-94.1h-84C175.8,439.4,206,475.6,241,480z"></path>
      <path d="M136.9,140.6H55.4C35.6,173.4,24.7,210.7,23.6,249H122C122.2,212.4,127.2,176,136.9,140.6z"></path>
      <path d="M141.4,385.9H64.9c31.5,44.4,78,75.8,131,88.5C173.3,455.6,154.5,424.7,141.4,385.9L141.4,385.9z"></path>
      <path d="M195.9,37.6c-52.9,12.7-99.5,44.2-131,88.5h76.5C154.5,87.3,173.3,56.4,195.9,37.6L195.9,37.6z"></path>
      <path d="M300.1,474.4c52.9-12.7,99.5-44.2,131-88.5h-76.5C341.5,424.7,322.7,455.6,300.1,474.4L300.1,474.4z"></path>
      <path d="M255,385.9V480c34.6-4.5,64.9-40.7,84-94.2L255,385.9z"></path>
      <path d="M354.6,126.1h76.5c-31.5-44.4-78-75.8-131-88.5C322.7,56.4,341.5,87.3,354.6,126.1L354.6,126.1z"></path>
      <path d="M360,263H255v108.4h88.9C354.2,336.1,359.6,299.7,360,263z"></path>
      <path d="M374,249h98c-1.2-38.2-12.1-75.4-31.8-108.1h-81.1C368.7,176.1,373.7,212.5,374,249z"></path>
    </g>
  </svg>
  <svg version="1.1" id="night" xmlns="http://www.w3.org/2000/svg" xmlns:xlink="http://www.w3.org/1999/xlink" x="0px" y="0px" xml:space="preserve" viewBox="0 0 543 567">
    <g>
      <path d="M493.2,386.2c-38.4,88.1-125.5,145.2-221.9,145.2c-133.6,0-242.5-108.9-242.5-242.5C28.8,193.1,85.6,106,173.4,67
		c7.7-3.5,17-1.9,23,4.4c6,6,7.9,15.1,4.4,22.8C127.5,262.4,300,432.4,465.8,359c7.9-3.5,17-1.9,23,4.1
		C494.9,369.2,496.7,378.3,493.2,386.2L493.2,386.2z"></path>
      <path d="M517.3,83.3c-23.2-8.8-41.7-27.4-50.4-50.8c-1.9-5.2-8.8-5.2-10.8,0c-8.8,23.2-27.5,41.7-51,50.3c-5.2,1.9-5.2,8.9,0,10.8
		c23.4,8.8,42,27.4,50.7,50.8c1.9,5.2,8.8,5.2,10.8,0c8.8-23.2,27.4-41.7,50.7-50.4C522.5,92.2,522.5,85.3,517.3,83.3L517.3,83.3z"></path>
      <path d="M353.5,178.8c-23.2-8.8-41.7-27.4-50.4-50.8c-1.9-5.2-8.8-5.2-10.8,0c-8.8,23.2-27.5,41.7-51,50.3c-5.2,1.9-5.2,8.9,0,10.8
		c23.4,8.8,42,27.4,50.7,50.8c1.9,5.2,8.8,5.2,10.8,0c8.8-23.2,27.4-41.7,50.7-50.4C358.7,187.7,358.7,180.8,353.5,178.8
		L353.5,178.8z"></path>
    </g>
  </svg>
   <svg version="1.1" id="profile" xmlns="http://www.w3.org/2000/svg" xmlns:xlink="http://www.w3.org/1999/xlink" x="0px" y="0px" xml:space="preserve" viewBox="0 0 484 509">
    <g>
      <path d="M268.6,269h-48.7c-101.4,0-183.1,81.8-183.1,182.6c0,7.3,6.2,13.4,13.4,13.4h388.1c7.3,0,13.4-6.2,13.4-13.4
		C451.2,350.8,369.4,269,268.6,269L268.6,269z"></path>
      <path d="M322.4,151.4v-44.8c0-43.1-35.3-78.4-78.4-78.4c-43.1,0-78.4,35.3-78.4,78.4v44.8c0,43.1,35.3,78.4,78.4,78.4
		C287.1,229.8,322.4,194.5,322.4,151.4z"></path>
    </g>
  </svg>
  <svg version="1.1" id="bell" xmlns="http://www.w3.org/2000/svg" xmlns:xlink="http://www.w3.org/1999/xlink" x="0px" y="0px" xml:space="preserve" viewBox="0 0 563 608">
    <g>
      <path d="M67.7,498.1c-42.5,0-42.5-66.7,0-66.7c38.4,0,40.4-125.3,40.4-169.8c0-101.1,56.6-161.7,125.3-179.9
		C227.4,51.3,249.6,21,282,21s56.6,30.3,50.5,60.6c66.7,18.2,123.3,78.8,123.3,179.9c0,44.5,4,169.8,40.4,169.8
		c44.5,0,44.5,66.7,0,66.7H67.7z M257.7,75.6c16.2-2,32.3-2,48.5,0c4-14.2-8.1-28.3-24.3-28.3C265.8,47.3,253.7,61.4,257.7,75.6
		L257.7,75.6z"></path>
      <path d="M320.4,512.3c18.2,30.3-4,68.7-38.4,68.7s-54.6-38.4-38.4-68.7L320.4,512.3L320.4,512.3z"></path>
    </g>
  </svg>
  <svg version="1.1" id="home" xmlns="http://www.w3.org/2000/svg" xmlns:xlink="http://www.w3.org/1999/xlink" x="0px" y="0px" xml:space="preserve" viewBox="0 0 313 326">
    <g id="XMLID_1_">
      <g>
        <path d="M282.7,148.7c4.5,4.3,4.7,11.4,0.4,15.8l-7.8,8.1c-4.3,4.5-11.4,4.6-15.8,0.4l1.3,1.2c-2.2-2.1-4-1.3-4,1.8v104.6
			c0,6.2-5,11.2-11.2,11.2H66.4c-6.2,0-11.2-5.1-11.2-11.2V176.1c0-3.1-1.8-3.9-4-1.8l1.3-1.2c-4.5,4.3-11.5,4.1-15.8-0.4l-7.8-8.1
			c-4.3-4.5-4.1-11.5,0.4-15.8L147.9,35.5c4.5-4.3,11.7-4.3,16.3,0L282.7,148.7z M192.8,252.5V244c0-3.7-3-6.7-6.7-6.7H127
			c-3.7,0-6.7,3-6.7,6.7v8.5c0,3.7,3,6.7,6.7,6.7H186C189.7,259.2,192.8,256.2,192.8,252.5z"></path>
      </g>
      <g></g>
    </g>
  </svg>
  <svg version="1.1" id="sun" xmlns="http://www.w3.org/2000/svg" xmlns:xlink="http://www.w3.org/1999/xlink" x="0px" y="0px" xml:space="preserve" viewBox="0 0 577 568">
    <g>
      <path d="M279.3,531.6c-2.9-2.9-4.5-6.8-4.4-10.8v-65.2c0-5.4,2.9-10.3,7.5-13c4.7-2.7,10.4-2.7,15,0c4.7,2.7,7.5,7.7,7.5,13v65.2
		c0.1,4-1.5,7.8-4.3,10.7c-2.8,2.9-6.6,4.5-10.6,4.6H290C286,536,282.2,534.4,279.3,531.6L279.3,531.6z M446.7,462l-46.1-46.1
		c-2.9-2.8-4.5-6.7-4.5-10.7c0-4,1.6-7.9,4.4-10.7c2.8-2.8,6.7-4.4,10.7-4.4c4,0,7.9,1.7,10.7,4.5l46.1,46.1h0
		c2.9,2.8,4.5,6.6,4.5,10.7c0,4-1.6,7.9-4.4,10.7c-2.8,2.8-6.7,4.4-10.7,4.4C453.4,466.5,449.5,464.9,446.7,462L446.7,462z
		 M111.9,462.3L111.9,462.3c-2.9-2.8-4.6-6.7-4.6-10.8s1.6-8,4.6-10.8l46.1-46.1h0c2.8-2.9,6.6-4.5,10.7-4.5c4,0,7.9,1.6,10.7,4.4
		c2.8,2.8,4.4,6.7,4.4,10.7c0,4-1.7,7.9-4.5,10.7L133.2,462h0c-2.8,2.9-6.6,4.5-10.6,4.6C118.7,466.6,114.8,465.1,111.9,462.3
		L111.9,462.3z M174.4,284c0-30.7,12.2-60.1,33.9-81.7c21.7-21.7,51.1-33.9,81.7-33.9c30.7,0,60.1,12.2,81.7,33.9
		c21.7,21.7,33.9,51.1,33.9,81.7c0,30.7-12.2,60.1-33.9,81.7s-51.1,33.9-81.7,33.9c-30.7,0-60.1-12.2-81.7-33.9
		C186.6,344,174.4,314.6,174.4,284z M446.4,284c0-4,1.6-7.8,4.4-10.6c2.8-2.8,6.6-4.4,10.6-4.4h65.2c4-0.1,7.9,1.5,10.8,4.3
		c2.9,2.8,4.5,6.7,4.5,10.7c0,4-1.6,7.9-4.5,10.7c-2.9,2.8-6.8,4.4-10.8,4.3h-65.2c-4,0-7.8-1.6-10.6-4.4
		C448,291.8,446.4,288,446.4,284L446.4,284z M53.2,299c-4,0.1-7.9-1.5-10.8-4.3C39.6,291.9,38,288,38,284c0-4,1.6-7.9,4.5-10.7
		c2.9-2.8,6.7-4.4,10.8-4.3h65.2c5.4,0,10.3,2.9,13,7.5c2.7,4.7,2.7,10.4,0,15c-2.7,4.7-7.7,7.5-13,7.5L53.2,299z M400.6,173.4
		c-2.8-2.8-4.4-6.6-4.4-10.6s1.6-7.8,4.4-10.6l46.1-46.1c2.8-2.9,6.6-4.5,10.7-4.5c4,0,7.9,1.6,10.7,4.4c2.8,2.8,4.4,6.7,4.4,10.7
		s-1.7,7.9-4.5,10.7l-46.1,46.1c-2.8,2.8-6.6,4.4-10.6,4.4S403.4,176.2,400.6,173.4L400.6,173.4z M158.1,173.3L112,127.2h0
		c-2.9-2.8-4.5-6.6-4.5-10.7s1.6-7.9,4.4-10.7c2.8-2.8,6.7-4.4,10.7-4.4c4,0,7.9,1.7,10.7,4.5l46.1,46.1h0c2.8,2.8,4.4,6.6,4.5,10.6
		c0,4-1.6,7.8-4.4,10.7c-2.8,2.8-6.7,4.4-10.7,4.4S160.9,176.2,158.1,173.3L158.1,173.3z M274.9,112.5V47.3v-0.2
		c0-5.4,2.9-10.3,7.5-13c4.7-2.7,10.4-2.7,15,0c4.7,2.7,7.5,7.6,7.5,13v0.2v65.2c0,5.4-2.9,10.3-7.5,13c-4.7,2.7-10.4,2.7-15,0
		C277.8,122.8,274.9,117.9,274.9,112.5L274.9,112.5z"></path>
    </g>
  </svg>
  <svg version="1.1" id="eye" xmlns="http://www.w3.org/2000/svg" xmlns:xlink="http://www.w3.org/1999/xlink" x="0px" y="0px" viewBox="0 0 394.3 157.1" style="enable-background:new 0 0 394.3 157.1;" xml:space="preserve">
    <path d="M394.3,84.8l-39.2,39.1c-23.1-22.7-50.7-40.1-81.2-51.2c2.3,25-7.8,49.6-26.9,65.8c-14.1,12.1-32.1,18.7-50.6,18.6
      c-21.5-0.3-41.9-9.4-56.5-25.2S117.8,95,119.2,73.6c-30.3,10.3-57.8,27.4-80.4,50L0,84.3C52.4,32.1,123.3,2.9,197.3,3
      C271.1,3.1,342,32.5,394.3,84.8L394.3,84.8z"/>
  </svg>
  <svg version="1.1" id="closedEye" xmlns="http://www.w3.org/2000/svg" xmlns:xlink="http://www.w3.org/1999/xlink" x="0px" y="0px" viewBox="0 0 394.3 120.9" style="enable-background:new 0 0 394.3 120.9;" xml:space="preserve">
    <path d="M0,39.1L39.2,0c23.1,22.7,50.7,40.1,81.2,51.2c29.1,12.9,111.3,17.5,154.7-0.9c30.3-10.3,57.8-27.4,80.4-50l38.8,39.3
      C341.9,91.8,271,121,197,120.9C123.1,120.8,52.2,91.4,0,39.1L0,39.1z"/>
  </svg>

  <svg version="1.1" id="back" xmlns="http://www.w3.org/2000/svg" xmlns:xlink="http://www.w3.org/1999/xlink" x="0px" y="0px" viewBox="0 0 527.4 453.5" style="enable-background:new 0 0 527.4 453.5;" xml:space="preserve">
    <g>
      <path d="M527.4,292.7c0,88.5-72.2,160.7-160.7,160.7c-20.2,0-36.4-16.2-36.4-36.4c0-20.2,16.2-36.4,36.4-36.4
        c48.2,0,87.9-39.2,87.9-87.9c0-48.2-39.2-87.9-87.9-87.9l-242.5,0l70.6,70.6c14,14,14,37.5,0,51.5c-7.3,7.3-16.2,10.6-25.8,10.6
        c-9.5,0-18.5-3.4-25.8-10.6L10.5,194.7c-14-14-14-37.5,0-51.5L143.2,10.5c14-14,37.5-14,51.5,0s14,37.5,0,51.5l-70.6,70.6h242.5
        C455.1,132.6,527.4,204.3,527.4,292.7L527.4,292.7z"/>
    </g>
  </svg>
</svg>