<?xml version="1.0" encoding="utf-8"?>
<!-- Generator: Adobe Illustrator 24.1.0, SVG Export Plug-In . SVG Version: 6.00 Build 0)  -->
<svg version="1.1" id="Calque_1" xmlns="http://www.w3.org/2000/svg" xmlns:xlink="http://www.w3.org/1999/xlink" x="0px" y="0px"
	 viewBox="0 0 543 567" style="enable-background:new 0 0 543 567;" xml:space="preserve">
<g>
	<path d="M493.2,386.2c-38.4,88.1-125.5,145.2-221.9,145.2c-133.6,0-242.5-108.9-242.5-242.5C28.8,193.1,85.6,106,173.4,67
		c7.7-3.5,17-1.9,23,4.4c6,6,7.9,15.1,4.4,22.8C127.5,262.4,300,432.4,465.8,359c7.9-3.5,17-1.9,23,4.1
		C494.9,369.2,496.7,378.3,493.2,386.2L493.2,386.2z"/>
	<path d="M517.3,83.3c-23.2-8.8-41.7-27.4-50.4-50.8c-1.9-5.2-8.8-5.2-10.8,0c-8.8,23.2-27.5,41.7-51,50.3c-5.2,1.9-5.2,8.9,0,10.8
		c23.4,8.8,42,27.4,50.7,50.8c1.9,5.2,8.8,5.2,10.8,0c8.8-23.2,27.4-41.7,50.7-50.4C522.5,92.2,522.5,85.3,517.3,83.3L517.3,83.3z"
		/>
	<path d="M353.5,178.8c-23.2-8.8-41.7-27.4-50.4-50.8c-1.9-5.2-8.8-5.2-10.8,0c-8.8,23.2-27.5,41.7-51,50.3c-5.2,1.9-5.2,8.9,0,10.8
		c23.4,8.8,42,27.4,50.7,50.8c1.9,5.2,8.8,5.2,10.8,0c8.8-23.2,27.4-41.7,50.7-50.4C358.7,187.7,358.7,180.8,353.5,178.8
		L353.5,178.8z"/>
</g>
</svg>
