<?xml version="1.0" encoding="utf-8"?>
<!-- Generator: Adobe Illustrator 24.1.0, SVG Export Plug-In . SVG Version: 6.00 Build 0)  -->
<svg version="1.1" id="Calque_1" xmlns="http://www.w3.org/2000/svg" xmlns:xlink="http://www.w3.org/1999/xlink" x="0px" y="0px"
	 viewBox="0 0 577 568" style="enable-background:new 0 0 577 568;" xml:space="preserve">
<g>
	<path d="M279.3,531.6c-2.9-2.9-4.5-6.8-4.4-10.8v-65.2c0-5.4,2.9-10.3,7.5-13c4.7-2.7,10.4-2.7,15,0c4.7,2.7,7.5,7.7,7.5,13v65.2
		c0.1,4-1.5,7.8-4.3,10.7c-2.8,2.9-6.6,4.5-10.6,4.6H290C286,536,282.2,534.4,279.3,531.6L279.3,531.6z M446.7,462l-46.1-46.1
		c-2.9-2.8-4.5-6.7-4.5-10.7c0-4,1.6-7.9,4.4-10.7c2.8-2.8,6.7-4.4,10.7-4.4c4,0,7.9,1.7,10.7,4.5l46.1,46.1h0
		c2.9,2.8,4.5,6.6,4.5,10.7c0,4-1.6,7.9-4.4,10.7c-2.8,2.8-6.7,4.4-10.7,4.4C453.4,466.5,449.5,464.9,446.7,462L446.7,462z
		 M111.9,462.3L111.9,462.3c-2.9-2.8-4.6-6.7-4.6-10.8s1.6-8,4.6-10.8l46.1-46.1h0c2.8-2.9,6.6-4.5,10.7-4.5c4,0,7.9,1.6,10.7,4.4
		c2.8,2.8,4.4,6.7,4.4,10.7c0,4-1.7,7.9-4.5,10.7L133.2,462h0c-2.8,2.9-6.6,4.5-10.6,4.6C118.7,466.6,114.8,465.1,111.9,462.3
		L111.9,462.3z M174.4,284c0-30.7,12.2-60.1,33.9-81.7c21.7-21.7,51.1-33.9,81.7-33.9c30.7,0,60.1,12.2,81.7,33.9
		c21.7,21.7,33.9,51.1,33.9,81.7c0,30.7-12.2,60.1-33.9,81.7s-51.1,33.9-81.7,33.9c-30.7,0-60.1-12.2-81.7-33.9
		C186.6,344,174.4,314.6,174.4,284z M446.4,284c0-4,1.6-7.8,4.4-10.6c2.8-2.8,6.6-4.4,10.6-4.4h65.2c4-0.1,7.9,1.5,10.8,4.3
		c2.9,2.8,4.5,6.7,4.5,10.7c0,4-1.6,7.9-4.5,10.7c-2.9,2.8-6.8,4.4-10.8,4.3h-65.2c-4,0-7.8-1.6-10.6-4.4
		C448,291.8,446.4,288,446.4,284L446.4,284z M53.2,299c-4,0.1-7.9-1.5-10.8-4.3C39.6,291.9,38,288,38,284c0-4,1.6-7.9,4.5-10.7
		c2.9-2.8,6.7-4.4,10.8-4.3h65.2c5.4,0,10.3,2.9,13,7.5c2.7,4.7,2.7,10.4,0,15c-2.7,4.7-7.7,7.5-13,7.5L53.2,299z M400.6,173.4
		c-2.8-2.8-4.4-6.6-4.4-10.6s1.6-7.8,4.4-10.6l46.1-46.1c2.8-2.9,6.6-4.5,10.7-4.5c4,0,7.9,1.6,10.7,4.4c2.8,2.8,4.4,6.7,4.4,10.7
		s-1.7,7.9-4.5,10.7l-46.1,46.1c-2.8,2.8-6.6,4.4-10.6,4.4S403.4,176.2,400.6,173.4L400.6,173.4z M158.1,173.3L112,127.2h0
		c-2.9-2.8-4.5-6.6-4.5-10.7s1.6-7.9,4.4-10.7c2.8-2.8,6.7-4.4,10.7-4.4c4,0,7.9,1.7,10.7,4.5l46.1,46.1h0c2.8,2.8,4.4,6.6,4.5,10.6
		c0,4-1.6,7.8-4.4,10.7c-2.8,2.8-6.7,4.4-10.7,4.4S160.9,176.2,158.1,173.3L158.1,173.3z M274.9,112.5V47.3v-0.2
		c0-5.4,2.9-10.3,7.5-13c4.7-2.7,10.4-2.7,15,0c4.7,2.7,7.5,7.6,7.5,13v0.2v65.2c0,5.4-2.9,10.3-7.5,13c-4.7,2.7-10.4,2.7-15,0
		C277.8,122.8,274.9,117.9,274.9,112.5L274.9,112.5z"/>
</g>
</svg>
